<svg width="66" height="52" viewBox="0 0 66 52" fill="none" xmlns="http://www.w3.org/2000/svg">
<path d="M43 22.5H53.25M53.25 22.5H63.5M53.25 22.5V32.75M53.25 22.5V12.25M43 49.8333V45.5625C43 38.4866 36.4434 32.75 28.3562 32.75H16.6438C8.55658 32.75 2 38.4866 2 45.5625V49.8333M32.75 12.25C32.75 14.9685 31.6701 17.5756 29.7478 19.4978C27.8256 21.4201 25.2185 22.5 22.5 22.5C19.7815 22.5 17.1744 21.4201 15.2522 19.4978C13.3299 17.5756 12.25 14.9685 12.25 12.25C12.25 9.53153 13.3299 6.9244 15.2522 5.00216C17.1744 3.07991 19.7815 2 22.5 2C25.2185 2 27.8256 3.07991 29.7478 5.00216C31.6701 6.9244 32.75 9.53153 32.75 12.25Z" stroke="#333333" stroke-width="4" stroke-linecap="round" stroke-linejoin="round"/>
</svg>
