<svg id="SvgjsSvg1048" width="288" height="288" xmlns="http://www.w3.org/2000/svg" version="1.1" xmlns:xlink="http://www.w3.org/1999/xlink" xmlns:svgjs="http://svgjs.com/svgjs"><defs id="SvgjsDefs1049"></defs><g id="SvgjsG1050"><svg xmlns="http://www.w3.org/2000/svg" data-name="Chevron left circle" viewBox="0 0 24 24" width="288" height="288"><path fill="none" d="M0 0h24v24H0Z" data-name="Path 3679"></path><path fill="#3668a1" d="M18.788 18.788a9.6 9.6 0 0 0 0-13.577 9.6 9.6 0 0 0-13.576 0 9.6 9.6 0 0 0 0 13.577A9.57 9.57 0 0 0 12 21.6a9.569 9.569 0 0 0 6.788-2.812Zm-1.272-12.3a7.809 7.809 0 0 1 0 11.03 7.809 7.809 0 0 1-11.031 0 7.808 7.808 0 0 1 0-11.03A7.776 7.776 0 0 1 12 4.2a7.776 7.776 0 0 1 5.516 2.285Zm-3.289 9.121a1.2 1.2 0 0 0 0-1.7L12.318 12l1.909-1.909a1.2 1.2 0 0 0 0-1.7 1.2 1.2 0 0 0-1.7 0l-2.758 2.758a1.2 1.2 0 0 0 0 1.7l2.758 2.758a1.2 1.2 0 0 0 .848.351 1.194 1.194 0 0 0 .852-.352Z" data-name="Path 3564" class="color525863 svgShape"></path></svg></g></svg>