<svg id="SvgjsSvg1051" width="288" height="288" xmlns="http://www.w3.org/2000/svg" version="1.1" xmlns:xlink="http://www.w3.org/1999/xlink" xmlns:svgjs="http://svgjs.com/svgjs"><defs id="SvgjsDefs1052"></defs><g id="SvgjsG1053"><svg xmlns="http://www.w3.org/2000/svg" xmlns:svgjs="http://svgjs.com/svgjs" xmlns:xlink="http://www.w3.org/1999/xlink" viewBox="0 0 288 288" width="288" height="288"><svg xmlns="http://www.w3.org/2000/svg" fill="none" viewBox="0 0 42 42" width="288" height="288"><path fill="#0c0101" d="M36 0H6.00094C2.68688 0 0.00075001 2.68594 0.00056251 6L9.81547e-09 35.9156C-0.00018749 39.3094 2.68594 42 6 42H27.7594C30.1463 42 32.4356 41.0513 34.1241 39.3638L39.3628 34.1241C41.0531 32.3531 42 30.15 42 27.7594V6C42 2.7 39.3 0 36 0ZM4.59375 37.4062C4.42969 37.2469 3.84375 36.5438 3.84375 36L3.84563 6.08438C3.84563 5.17313 5.175 3.84375 6.00187 3.84375H36C36.8132 3.84375 38.1563 5.187 38.1563 6V24.6563H29.25C26.3531 24.6563 24.6563 26.3531 24.6563 29.25V38.1563H6C5.45906 38.1563 4.75781 37.575 4.59375 37.4062ZM31.515 36.7463C30.1875 37.425 29.4188 37.275 28.5 37.425V29.25C28.5 28.8369 28.8369 28.5 29.25 28.5H37.4278C37.2762 29.4199 38.0625 29.8594 36.75 31.5103L31.515 36.7463Z" class="color333 svgShape color080707"></path></svg></svg></g></svg>