<svg width="17" height="18" viewBox="0 0 17 18" fill="none" xmlns="http://www.w3.org/2000/svg">
<path d="M6.8 3.07317H10.2C10.2 2.60742 10.0209 2.16075 9.70208 1.83142C9.38327 1.50209 8.95087 1.31707 8.5 1.31707C8.04913 1.31707 7.61673 1.50209 7.29792 1.83142C6.97911 2.16075 6.8 2.60742 6.8 3.07317ZM5.525 3.07317C5.525 2.6696 5.60195 2.26997 5.75146 1.89712C5.90097 1.52427 6.1201 1.18548 6.39636 0.900111C6.67261 0.614741 7.00057 0.388373 7.36152 0.233931C7.72246 0.0794899 8.10932 0 8.5 0C8.89068 0 9.27754 0.0794899 9.63848 0.233931C9.99943 0.388373 10.3274 0.614741 10.6036 0.900111C10.8799 1.18548 11.099 1.52427 11.2485 1.89712C11.3981 2.26997 11.475 2.6696 11.475 3.07317H16.3625C16.5316 3.07317 16.6937 3.14255 16.8133 3.26605C16.9328 3.38955 17 3.55705 17 3.73171C17 3.90636 16.9328 4.07386 16.8133 4.19736C16.6937 4.32086 16.5316 4.39024 16.3625 4.39024H15.2405L14.246 15.0243C14.1697 15.8391 13.8023 16.5953 13.2155 17.1455C12.6287 17.6957 11.8646 18.0003 11.0721 18H5.9279C5.13558 18.0001 4.37164 17.6954 3.78501 17.1452C3.19838 16.5951 2.83112 15.839 2.75485 15.0243L1.7595 4.39024H0.6375C0.468424 4.39024 0.306274 4.32086 0.186719 4.19736C0.0671649 4.07386 0 3.90636 0 3.73171C0 3.55705 0.0671649 3.38955 0.186719 3.26605C0.306274 3.14255 0.468424 3.07317 0.6375 3.07317H5.525ZM7.225 7.2439C7.225 7.06925 7.15784 6.90175 7.03828 6.77825C6.91873 6.65475 6.75658 6.58537 6.5875 6.58537C6.41842 6.58537 6.25627 6.65475 6.13672 6.77825C6.01717 6.90175 5.95 7.06925 5.95 7.2439V13.8293C5.95 14.0039 6.01717 14.1714 6.13672 14.2949C6.25627 14.4184 6.41842 14.4878 6.5875 14.4878C6.75658 14.4878 6.91873 14.4184 7.03828 14.2949C7.15784 14.1714 7.225 14.0039 7.225 13.8293V7.2439ZM10.4125 6.58537C10.5816 6.58537 10.7437 6.65475 10.8633 6.77825C10.9828 6.90175 11.05 7.06925 11.05 7.2439V13.8293C11.05 14.0039 10.9828 14.1714 10.8633 14.2949C10.7437 14.4184 10.5816 14.4878 10.4125 14.4878C10.2434 14.4878 10.0813 14.4184 9.96172 14.2949C9.84217 14.1714 9.775 14.0039 9.775 13.8293V7.2439C9.775 7.06925 9.84217 6.90175 9.96172 6.77825C10.0813 6.65475 10.2434 6.58537 10.4125 6.58537ZM4.0239 14.8979C4.06975 15.3866 4.29016 15.8402 4.64216 16.1702C4.99417 16.5003 5.45253 16.683 5.9279 16.6829H11.0721C11.5475 16.683 12.0058 16.5003 12.3578 16.1702C12.7098 15.8402 12.9303 15.3866 12.9761 14.8979L13.9604 4.39024H3.0396L4.0239 14.8979Z" fill="#f20d0d"/>
</svg>
