<?xml version="1.0" standalone="no"?>
<!DOCTYPE svg PUBLIC "-//W3C//DTD SVG 20010904//EN"
 "http://www.w3.org/TR/2001/REC-SVG-20010904/DTD/svg10.dtd">
<svg version="1.0" xmlns="http://www.w3.org/2000/svg"
 width="980.000000pt" height="980.000000pt" viewBox="0 0 980.000000 980.000000"
 preserveAspectRatio="xMidYMid meet">

<g transform="translate(0.000000,980.000000) scale(0.100000,-0.100000)"
fill="#9e0c55" stroke="none">
<path d="M4560 9789 c-824 -56 -1659 -338 -2350 -794 -295 -195 -496 -360
-771 -634 -207 -207 -329 -346 -474 -541 -945 -1272 -1215 -2924 -723 -4440
194 -597 500 -1146 922 -1650 98 -117 370 -393 496 -504 1328 -1166 3158
-1531 4825 -962 895 305 1700 879 2281 1627 671 863 1035 1924 1034 3014 0
275 -34 639 -84 896 l-21 114 -288 3 c-158 1 -287 -1 -287 -6 0 -4 9 -48 19
-97 69 -315 95 -568 94 -920 0 -301 -13 -467 -59 -733 -200 -1179 -895 -2234
-1904 -2895 -580 -379 -1219 -605 -1932 -683 -187 -21 -655 -24 -833 -5 -906
94 -1699 423 -2382 989 -152 127 -394 365 -520 513 -577 679 -920 1479 -1019
2381 -24 210 -24 666 0 876 112 1017 535 1911 1241 2618 730 732 1629 1156
2680 1265 154 16 635 16 790 0 440 -45 840 -142 1233 -300 l52 -21 0 303 0
303 -175 57 c-588 190 -1221 268 -1845 226z"/>
<path d="M9199 8842 c-1501 -952 -3021 -2236 -4324 -3653 -201 -218 -420 -467
-565 -642 -58 -69 -107 -126 -110 -126 -3 -1 -102 76 -220 170 -118 95 -332
265 -475 379 -143 113 -415 330 -605 481 -545 434 -684 544 -697 552 -12 8
-888 -697 -888 -714 0 -11 3444 -3569 3455 -3569 4 0 15 21 25 48 45 119 198
459 306 677 691 1404 1815 3073 2998 4455 431 503 765 858 1269 1351 l203 198
-101 238 c-56 131 -104 241 -109 246 -4 4 -77 -37 -162 -91z"/>
</g>
</svg>
