<svg width="65" height="70" viewBox="0 0 65 70" fill="none" xmlns="http://www.w3.org/2000/svg">
<path d="M58.2292 30.625C59.1771 30.625 60.0573 30.7959 60.8698 31.1377C61.6823 31.4795 62.4045 31.9466 63.0365 32.5391C63.6684 33.1315 64.1424 33.8493 64.4583 34.6924C64.7743 35.5355 64.9549 36.4355 65 37.3926C65 38.2812 64.8307 39.1471 64.4922 39.9902C64.1536 40.8333 63.6684 41.5739 63.0365 42.2119L38.763 66.7188L26 69.9316L29.1823 57.0459L53.4557 32.5732C54.1102 31.9124 54.8438 31.4225 55.6563 31.1035C56.4688 30.7845 57.3264 30.625 58.2292 30.625ZM60.6667 37.3926C60.6667 36.6634 60.441 36.0824 59.9896 35.6494C59.5382 35.2165 58.9514 35 58.2292 35C57.9132 35 57.6085 35.0456 57.3151 35.1367C57.0217 35.2279 56.7622 35.3988 56.5365 35.6494L33.1094 59.3018L31.9583 63.916L36.5286 62.7539L59.9557 39.1357C60.4297 38.6572 60.6667 38.0762 60.6667 37.3926ZM4.33333 4.375V65.625H21.4635L20.4141 70H0V0H37.7474L56.3333 18.7646V25.3271C55.4983 25.4411 54.7535 25.612 54.099 25.8398C53.4444 26.0677 52.7448 26.4209 52 26.8994V21.875H34.6667V4.375H4.33333ZM39 7.48535V17.5H48.9193L39 7.48535ZM43.3333 30.625V35H13V30.625H43.3333ZM13 52.5V48.125H30.3672L26.0339 52.5H13ZM39.0339 39.375L34.7005 43.75H13V39.375H39.0339Z" fill="white"/>
</svg>
