<svg width="18" height="18" viewBox="0 0 18 18" fill="none" xmlns="http://www.w3.org/2000/svg">
<path d="M12.8802 3.26621L14.8084 5.2587M14.1201 1.5109L8.90655 6.90107C8.63717 7.17919 8.45345 7.53353 8.37855 7.91943L7.89697 10.4117L10.3076 9.91287C10.6808 9.83569 11.0231 9.64651 11.2926 9.36792L16.5062 3.97775C16.6628 3.81577 16.7871 3.62348 16.8719 3.41185C16.9567 3.20022 17.0003 2.97339 17.0003 2.74432C17.0003 2.51526 16.9567 2.28843 16.8719 2.0768C16.7871 1.86517 16.6628 1.67288 16.5062 1.5109C16.3495 1.34893 16.1635 1.22044 15.9588 1.13278C15.7541 1.04512 15.5347 1 15.3132 1C15.0916 1 14.8722 1.04512 14.6675 1.13278C14.4628 1.22044 14.2768 1.34893 14.1201 1.5109V1.5109Z" stroke="#387804" stroke-width="1.5" stroke-linecap="round" stroke-linejoin="round"/>
<path d="M15.1797 12.2938V15.1174C15.1797 15.6166 14.9879 16.0954 14.6464 16.4484C14.305 16.8014 13.8419 16.9997 13.359 16.9997H3.34512C2.86224 16.9997 2.39913 16.8014 2.05769 16.4484C1.71624 16.0954 1.52441 15.6166 1.52441 15.1174V4.76431C1.52441 4.26508 1.71624 3.78629 2.05769 3.43328C2.39913 3.08026 2.86224 2.88194 3.34512 2.88194H6.07617" stroke="#387804" stroke-width="1.5" stroke-linecap="round" stroke-linejoin="round"/>
</svg>