<svg width="66" height="66" viewBox="0 0 66 66" fill="none" xmlns="http://www.w3.org/2000/svg">
<path d="M48.0498 19.1748L50.9502 22.0752L26.8125 46.2129L15.0498 34.4502L17.9502 31.5498L26.8125 40.4121L48.0498 19.1748ZM33 0C36.0293 0 38.9512 0.386719 41.7656 1.16016C44.5801 1.93359 47.2119 3.04004 49.6611 4.47949C52.1104 5.91895 54.334 7.6377 56.332 9.63574C58.3301 11.6338 60.0488 13.8682 61.4883 16.3389C62.9277 18.8096 64.0342 21.4414 64.8076 24.2344C65.5811 27.0273 65.9785 29.9492 66 33C66 36.0293 65.6133 38.9512 64.8398 41.7656C64.0664 44.5801 62.96 47.2119 61.5205 49.6611C60.0811 52.1104 58.3623 54.334 56.3643 56.332C54.3662 58.3301 52.1318 60.0488 49.6611 61.4883C47.1904 62.9277 44.5586 64.0342 41.7656 64.8076C38.9727 65.5811 36.0508 65.9785 33 66C29.9707 66 27.0488 65.6133 24.2344 64.8398C21.4199 64.0664 18.7881 62.96 16.3389 61.5205C13.8896 60.0811 11.666 58.3623 9.66797 56.3643C7.66992 54.3662 5.95117 52.1318 4.51172 49.6611C3.07227 47.1904 1.96582 44.5693 1.19238 41.7979C0.418945 39.0264 0.0214844 36.0938 0 33C0 29.9707 0.386719 27.0488 1.16016 24.2344C1.93359 21.4199 3.04004 18.7881 4.47949 16.3389C5.91895 13.8896 7.6377 11.666 9.63574 9.66797C11.6338 7.66992 13.8682 5.95117 16.3389 4.51172C18.8096 3.07227 21.4307 1.96582 24.2021 1.19238C26.9736 0.418945 29.9062 0.0214844 33 0ZM33 61.875C35.6426 61.875 38.1885 61.5312 40.6377 60.8438C43.0869 60.1562 45.3857 59.1895 47.5342 57.9434C49.6826 56.6973 51.6377 55.1826 53.3994 53.3994C55.1611 51.6162 56.665 49.6719 57.9111 47.5664C59.1572 45.4609 60.1348 43.1621 60.8438 40.6699C61.5527 38.1777 61.8965 35.6211 61.875 33C61.875 30.3574 61.5312 27.8115 60.8438 25.3623C60.1562 22.9131 59.1895 20.6143 57.9434 18.4658C56.6973 16.3174 55.1826 14.3623 53.3994 12.6006C51.6162 10.8389 49.6719 9.33496 47.5664 8.08887C45.4609 6.84277 43.1621 5.86523 40.6699 5.15625C38.1777 4.44727 35.6211 4.10352 33 4.125C30.3574 4.125 27.8115 4.46875 25.3623 5.15625C22.9131 5.84375 20.6143 6.81055 18.4658 8.05664C16.3174 9.30273 14.3623 10.8174 12.6006 12.6006C10.8389 14.3838 9.33496 16.3281 8.08887 18.4336C6.84277 20.5391 5.86523 22.8379 5.15625 25.3301C4.44727 27.8223 4.10352 30.3789 4.125 33C4.125 35.6426 4.46875 38.1885 5.15625 40.6377C5.84375 43.0869 6.81055 45.3857 8.05664 47.5342C9.30273 49.6826 10.8174 51.6377 12.6006 53.3994C14.3838 55.1611 16.3281 56.665 18.4336 57.9111C20.5391 59.1572 22.8379 60.1348 25.3301 60.8438C27.8223 61.5527 30.3789 61.8965 33 61.875Z" fill="#333333"/>
</svg>
