<svg id="SvgjsSvg1057" width="288" height="288" xmlns="http://www.w3.org/2000/svg" version="1.1" xmlns:xlink="http://www.w3.org/1999/xlink" xmlns:svgjs="http://svgjs.com/svgjs"><defs id="SvgjsDefs1058"></defs><g id="SvgjsG1059"><svg xmlns="http://www.w3.org/2000/svg" xmlns:svgjs="http://svgjs.com/svgjs" xmlns:xlink="http://www.w3.org/1999/xlink" viewBox="0 0 288 288" width="288" height="288"><svg xmlns="http://www.w3.org/2000/svg" fill="none" viewBox="0 0 38 40" width="288" height="288"><path fill="#0c0101" fill-rule="evenodd" d="M5.95222 3.07157C5.25129 3.07157 4.57907 3.35001 4.08344 3.84564C3.5878 4.34127 3.30936 5.0135 3.30936 5.71443V34.7144C3.30936 35.4154 3.5878 36.0876 4.08344 36.5832C4.57907 37.0788 5.25129 37.3573 5.95222 37.3573H28.4165V40.0001H5.95222C4.55036 40.0001 3.20592 39.4433 2.21465 38.452C1.22339 37.4607 0.666504 36.1163 0.666504 34.7144V5.71443C0.666504 4.31257 1.22339 2.96812 2.21465 1.97686C3.20592 0.985597 4.55036 0.428711 5.95222 0.428711H32.3808C33.7826 0.428711 35.1271 0.985597 36.1183 1.97686C37.1096 2.96812 37.6665 4.31257 37.6665 5.71443V34.7144C37.6665 36.1163 37.1096 37.4607 36.1183 38.452C35.1271 39.4433 33.7826 40.0001 32.3808 40.0001H28.4165V37.3573H32.3808C33.0817 37.3573 33.7539 37.0788 34.2496 36.5832C34.7452 36.0876 35.0236 35.4154 35.0236 34.7144V5.71443C35.0236 5.0135 34.7452 4.34127 34.2496 3.84564C33.7539 3.35001 33.0817 3.07157 32.3808 3.07157H5.95222Z" class="color333 svgShape color0e0e0e" clip-rule="evenodd"></path><path fill="#0c0101" fill-rule="evenodd" d="M11.2379 9.67885C11.2379 9.32839 11.3771 8.99228 11.6249 8.74446C11.8727 8.49664 12.2088 8.35742 12.5593 8.35742H25.7736C26.124 8.35742 26.4602 8.49664 26.708 8.74446C26.9558 8.99228 27.095 9.32839 27.095 9.67885C27.095 10.0293 26.9558 10.3654 26.708 10.6132C26.4602 10.8611 26.124 11.0003 25.7736 11.0003H12.5593C12.2088 11.0003 11.8727 10.8611 11.6249 10.6132C11.3771 10.3654 11.2379 10.0293 11.2379 9.67885ZM5.95215 17.6074C5.95215 17.257 6.09137 16.9208 6.33919 16.673C6.587 16.4252 6.92311 16.286 7.27358 16.286H31.0593C31.4098 16.286 31.7459 16.4252 31.9937 16.673C32.2415 16.9208 32.3807 17.257 32.3807 17.6074C32.3807 17.9579 32.2415 18.294 31.9937 18.5418C31.7459 18.7896 31.4098 18.9288 31.0593 18.9288H7.27358C6.92311 18.9288 6.587 18.7896 6.33919 18.5418C6.09137 18.294 5.95215 17.9579 5.95215 17.6074ZM5.95215 22.8931C5.95215 22.5427 6.09137 22.2066 6.33919 21.9587C6.587 21.7109 6.92311 21.5717 7.27358 21.5717H31.0593C31.4098 21.5717 31.7459 21.7109 31.9937 21.9587C32.2415 22.2066 32.3807 22.5427 32.3807 22.8931C32.3807 23.2436 32.2415 23.5797 31.9937 23.8275C31.7459 24.0753 31.4098 24.2146 31.0593 24.2146H7.27358C6.92311 24.2146 6.587 24.0753 6.33919 23.8275C6.09137 23.5797 5.95215 23.2436 5.95215 22.8931ZM5.95215 28.1788C5.95215 27.8284 6.09137 27.4923 6.33919 27.2445C6.587 26.9966 6.92311 26.8574 7.27358 26.8574H31.0593C31.4098 26.8574 31.7459 26.9966 31.9937 27.2445C32.2415 27.4923 32.3807 27.8284 32.3807 28.1788C32.3807 28.5293 32.2415 28.8654 31.9937 29.1132C31.7459 29.3611 31.4098 29.5003 31.0593 29.5003H7.27358C6.92311 29.5003 6.587 29.3611 6.33919 29.1132C6.09137 28.8654 5.95215 28.5293 5.95215 28.1788Z" class="color333 svgShape color0e0e0e" clip-rule="evenodd"></path><path fill="#0c0101" d="M6.33919 27.2445C6.09137 27.4923 5.95215 27.8284 5.95215 28.1788C5.95215 28.5293 6.09137 28.8654 6.33919 29.1132C6.587 29.3611 6.92311 29.5003 7.27358 29.5003H31.0593C31.4098 29.5003 31.7459 29.3611 31.9937 29.1132C32.2415 28.8654 32.3807 28.5293 32.3807 28.1788C32.3807 27.8284 32.2415 27.4923 31.9937 27.2445C31.7459 26.9966 31.4098 26.8574 31.0593 26.8574H7.27358C6.92311 26.8574 6.587 26.9966 6.33919 27.2445Z" class="color333 svgShape color0e0e0e"></path></svg></svg></g></svg>