<svg width="20" height="20" viewBox="0 0 20 20" fill="none" xmlns="http://www.w3.org/2000/svg">
<path d="M1.982 7.45543C1.1337 5.63171 1.97828 3.5185 3.85255 2.28503C4.18535 2.0661 4.58915 1.98238 4.98156 2.05096C5.37398 2.11954 5.72544 2.33524 5.96427 2.65408L7.14061 4.22337C7.32978 4.47582 7.43923 4.77902 7.45491 5.09409C7.4706 5.40916 7.39181 5.72174 7.22864 5.99172L5.79216 8.36816C5.72136 8.48551 5.68214 8.61918 5.67831 8.75618C5.67448 8.89318 5.70618 9.02884 5.77032 9.14995L5.81093 9.22385L5.91762 9.40791C6.00986 9.56237 6.14417 9.77876 6.31841 10.0329C6.66426 10.538 7.17504 11.2034 7.82767 11.8265C8.4803 12.4495 9.16853 12.9294 9.68848 13.2514C9.95925 13.4191 10.2368 13.5756 10.5204 13.7205L10.5976 13.759C10.7213 13.8172 10.858 13.8424 10.9944 13.8321C11.1307 13.8218 11.2621 13.7764 11.3756 13.7002L13.6835 12.1559C13.9457 11.9805 14.2544 11.8875 14.5699 11.8887C14.8853 11.89 15.1933 11.9854 15.4541 12.1629L17.0844 13.2709C17.7638 13.7319 17.9661 14.6427 17.5468 15.3487C16.4011 17.2787 14.3226 18.2148 12.4602 17.4436C10.1763 16.4944 8.0865 15.1331 6.29531 13.4275C4.49468 11.7262 3.03137 9.7003 1.98223 7.45619L1.982 7.45543ZM7.39113 8.78341L8.58374 6.81082C8.91006 6.27084 9.06764 5.64569 9.03627 5.01555C9.0049 4.38541 8.78601 3.779 8.40767 3.27411L7.23057 1.70504C6.75004 1.06385 6.04307 0.630065 5.25378 0.492099C4.46448 0.354133 3.65228 0.522377 2.98274 0.962534C0.655331 2.49367 -0.726328 5.38693 0.546721 8.12317C1.67995 10.5481 3.26052 12.7375 5.2055 14.5765C7.13734 16.4157 9.39114 17.8836 11.8543 18.907C14.6462 20.061 17.4842 18.5577 18.9085 16.1568C19.3162 15.4701 19.4465 14.6537 19.273 13.8742C19.0994 13.0947 18.6351 12.4107 17.9747 11.9618L16.3444 10.8537C15.8226 10.4987 15.2066 10.3078 14.5755 10.3053C13.9444 10.3029 13.327 10.489 12.8024 10.84L10.887 12.1218C10.7642 12.0523 10.6427 11.9803 10.5227 11.9059C9.94868 11.5532 9.41202 11.1429 8.92109 10.6814C8.43731 10.2122 8.00256 9.69496 7.62355 9.1377C7.54367 9.0212 7.46618 8.90308 7.39113 8.78341Z" fill="black"/>
</svg>
