<svg width="460" height="566" viewBox="0 0 460 566" fill="none" xmlns="http://www.w3.org/2000/svg">
<path opacity="0.44" d="M177.369 465.456L164.467 463.459L159.712 473.709L172.618 475.705C172.835 478.058 173.894 480.393 175.789 482.543L166.343 487.996L179.339 495.498L188.785 490.045C192.511 491.137 196.549 491.749 200.629 491.877L204.089 499.33L221.839 496.583L218.383 489.133C220.076 488.495 221.686 487.748 223.172 486.889C224.658 486.03 225.953 485.103 227.056 484.123L239.958 486.12L244.717 475.87L231.811 473.874C231.593 471.521 230.535 469.186 228.64 467.036L238.085 461.583L225.089 454.08L215.644 459.534C211.917 458.441 207.879 457.83 203.8 457.702L200.34 450.249L182.589 452.996L186.045 460.446C184.353 461.084 182.743 461.83 181.257 462.69C179.771 463.549 178.476 464.476 177.372 465.456H177.369ZM191.682 468.71C197.499 465.351 206.93 465.351 212.746 468.71C218.563 472.069 218.563 477.514 212.746 480.869C206.93 484.228 197.499 484.228 191.682 480.869C185.865 477.51 185.865 472.065 191.682 468.71Z" fill="#37474F"/>
<path d="M190.016 479.725C185.936 476.369 186.488 471.712 191.682 468.713C197.499 465.354 206.93 465.354 212.743 468.713C217.381 471.389 218.316 475.394 215.557 478.61C214.856 477.792 213.921 477.026 212.743 476.347C206.926 472.988 197.495 472.988 191.682 476.347C190.504 477.026 189.569 477.796 188.867 478.61C189.198 478.997 189.58 479.368 190.016 479.725Z" fill="#073669"/>
<path d="M223.172 486.893C224.658 486.033 225.953 485.106 227.056 484.127L239.958 486.123L244.683 475.945H244.717L244.683 476.02H244.717L244.683 476.095H244.717L244.683 476.171H244.717L244.683 476.246H244.717L244.683 476.321H244.717L244.683 476.396H244.717L244.683 476.471H244.717L244.683 476.546H244.717L244.683 476.621H244.717L244.683 476.696H244.717L244.683 476.771H244.717L244.683 476.846H244.717L244.683 476.921H244.717L244.683 476.996H244.717L244.683 477.071H244.717L244.683 477.146H244.717L244.683 477.221H244.717L244.683 477.296H244.717L244.683 477.371H244.717L244.683 477.447H244.717L244.683 477.522H244.717L244.683 477.597H244.717L244.683 477.672H244.717L244.683 477.747H244.717L244.683 477.822H244.717L244.683 477.897H244.717L244.683 477.972H244.717L244.683 478.047H244.717L244.683 478.122H244.717L244.683 478.197H244.717L244.683 478.272H244.717L244.683 478.347H244.717L244.683 478.422H244.717L244.683 478.497H244.717L244.683 478.572H244.717L244.683 478.647H244.717L244.683 478.723H244.717L244.683 478.798H244.717L244.683 478.873H244.717L244.683 478.948H244.717L244.683 479.023H244.717L244.683 479.098H244.717L244.683 479.173H244.717L244.683 479.248H244.717L244.683 479.323H244.717L244.683 479.398H244.717L244.683 479.473H244.717L244.683 479.548H244.717L244.683 479.623H244.717L244.683 479.698H244.717L244.683 479.773H244.717L244.683 479.848H244.717L244.683 479.924H244.717L244.683 479.999H244.717L244.683 480.074H244.717L244.683 480.149H244.717L244.683 480.224H244.717L244.683 480.299H244.717L244.683 480.374H244.717L244.683 480.449H244.717L244.683 480.524H244.717L244.683 480.599H244.717L244.683 480.674H244.717L244.683 480.749H244.717L244.683 480.824H244.717L244.683 480.899H244.717L244.683 480.974H244.717L244.683 481.049H244.717L244.683 481.124H244.717L244.683 481.2H244.717L244.683 481.275H244.717L244.683 481.35H244.717L244.683 481.425H244.717L244.683 481.5H244.717L244.683 481.575H244.717L244.683 481.65H244.717L244.683 481.725H244.717L244.683 481.8H244.717L244.683 481.875H244.717L244.683 481.95H244.717L244.683 482.025H244.717L244.683 482.1H244.717L244.683 482.175H244.717L244.683 482.25H244.717L244.683 482.325H244.717L244.683 482.4H244.717L244.683 482.476H244.717L244.683 482.551H244.717L244.683 482.626H244.717L244.683 482.701H244.717L244.683 482.776H244.717L244.683 482.851H244.717L244.683 482.926H244.717L244.683 483.001H244.717L244.683 483.076H244.717L244.683 483.151H244.717L244.683 483.226H244.717L244.683 483.301H244.717L244.683 483.376H244.717L244.683 483.451H244.717L239.958 493.704L227.056 491.708C225.953 492.687 224.658 493.614 223.172 494.474C222.579 494.815 221.963 495.134 221.333 495.442L221.84 496.534L218.383 489.085C220.076 488.447 221.686 487.7 223.172 486.84V486.893Z" fill="#073669"/>
<path d="M179.339 495.502L188.785 490.049C192.511 491.141 196.549 491.753 200.629 491.881L204.089 499.334L221.839 496.587H221.806L221.839 496.662H221.806L221.839 496.737H221.806L221.839 496.812H221.806L221.839 496.887H221.806L221.839 496.962H221.806L221.839 497.037H221.806L221.839 497.112H221.806L221.839 497.187H221.806L221.839 497.262H221.806L221.839 497.337H221.806L221.839 497.412H221.806L221.839 497.487H221.806L221.839 497.563H221.806L221.839 497.638H221.806L221.839 497.713H221.806L221.839 497.788H221.806L221.839 497.863H221.806L221.839 497.938H221.806L221.839 498.013H221.806L221.839 498.088H221.806L221.839 498.163H221.806L221.839 498.238H221.806L221.839 498.313H221.806L221.839 498.388H221.806L221.839 498.463H221.806L221.839 498.538H221.806L221.839 498.613H221.806L221.839 498.688H221.806L221.839 498.763H221.806L221.839 498.839H221.806L221.839 498.914H221.806L221.839 498.989H221.806L221.839 499.064H221.806L221.839 499.139H221.806L221.839 499.214H221.806L221.839 499.289H221.806L221.839 499.364H221.806L221.839 499.439H221.806L221.839 499.514H221.806L221.839 499.589H221.806L221.839 499.664H221.806L221.839 499.739H221.806L221.839 499.814H221.806L221.839 499.889H221.806L221.839 499.964H221.806L221.839 500.039H221.806L221.839 500.115H221.806L221.839 500.19H221.806L221.839 500.265H221.806L221.839 500.34H221.806L221.839 500.415H221.806L221.839 500.49H221.806L221.839 500.565H221.806L221.839 500.64H221.806L221.839 500.715H221.806L221.839 500.79H221.806L221.839 500.865H221.806L221.839 500.94H221.806L221.839 501.015H221.806L221.839 501.09H221.806L221.839 501.165H221.806L221.839 501.24H221.806L221.839 501.316H221.806L221.839 501.391H221.806L221.839 501.466H221.806L221.839 501.541H221.806L221.839 501.616H221.806L221.839 501.691H221.806L221.839 501.766H221.806L221.839 501.841H221.806L221.839 501.916H221.806L221.839 501.991H221.806L221.839 502.066H221.806L221.839 502.141H221.806L221.839 502.216H221.806L221.839 502.291H221.806L221.839 502.366H221.806L221.839 502.441H221.806L221.839 502.516H221.806L221.839 502.592H221.806L221.839 502.667H221.806L221.839 502.742H221.806L221.839 502.817H221.806L221.839 502.892H221.806L221.839 502.967H221.806L221.839 503.042H221.806L221.839 503.117H221.806L221.839 503.192H221.806L221.839 503.267H221.806L221.839 503.342H221.806L221.839 503.417H221.806L221.839 503.492H221.806L221.839 503.567H221.806L221.839 503.642H221.806L221.839 503.717H221.806L221.839 503.792H221.806L221.839 503.868H221.806L221.839 503.943H221.806L221.839 504.018H221.806L221.839 504.093H221.806L221.839 504.168L204.089 506.915L200.629 499.462C196.549 499.338 192.511 498.726 188.785 497.63L179.339 503.083L166.343 495.581L166.407 495.543L166.343 495.506L166.407 495.468L166.343 495.431L166.407 495.393L166.343 495.356L166.407 495.318L166.343 495.281L166.407 495.243L166.343 495.206L166.407 495.168L166.343 495.131L166.407 495.093L166.343 495.056L166.407 495.018L166.343 494.98L166.407 494.943L166.343 494.905L166.407 494.868L166.343 494.83L166.407 494.793L166.343 494.755L166.407 494.718L166.343 494.68L166.407 494.643L166.343 494.605L166.407 494.568L166.343 494.53L166.407 494.493L166.343 494.455L166.407 494.418L166.343 494.38L166.407 494.342L166.343 494.305L166.407 494.267L166.343 494.23L166.407 494.192L166.343 494.155L166.407 494.117L166.343 494.08L166.407 494.042L166.343 494.005L166.407 493.967L166.343 493.93L166.407 493.892L166.343 493.855L166.407 493.817L166.343 493.779L166.407 493.742L166.343 493.704L166.407 493.667L166.343 493.629L166.407 493.592L166.343 493.554L166.407 493.517L166.343 493.479L166.407 493.442L166.343 493.404L166.407 493.367L166.343 493.329L166.407 493.292L166.343 493.254L166.407 493.217L166.343 493.179L166.407 493.142L166.343 493.104L166.407 493.066L166.343 493.029L166.407 492.991L166.343 492.954L166.407 492.916L166.343 492.879L166.407 492.841L166.343 492.804L166.407 492.766L166.343 492.729L166.407 492.691L166.343 492.654L166.407 492.616L166.343 492.579L166.407 492.541L166.343 492.504L166.407 492.466L166.343 492.428L166.407 492.391L166.343 492.353L166.407 492.316L166.343 492.278L166.407 492.241L166.343 492.203L166.407 492.166L166.343 492.128L166.407 492.091L166.343 492.053L166.407 492.016L166.343 491.978L166.407 491.941L166.343 491.903L166.407 491.865L166.343 491.828L166.407 491.79L166.343 491.753L166.407 491.715L166.343 491.678L166.407 491.64L166.343 491.603L166.407 491.565L166.343 491.528L166.407 491.49L166.343 491.453L166.407 491.415L166.343 491.378L166.407 491.34L166.343 491.303L166.407 491.265L166.343 491.227L166.407 491.19L166.343 491.152L166.407 491.115L166.343 491.077L166.407 491.04L166.343 491.002L166.407 490.965L166.343 490.927L166.407 490.89L166.343 490.852L166.407 490.815L166.343 490.777L166.407 490.74L166.343 490.702L166.407 490.665L166.343 490.627L166.407 490.589L166.343 490.552L166.407 490.514L166.343 490.477L166.407 490.439L166.343 490.402L166.407 490.364L166.343 490.327L166.407 490.289L166.343 490.252L166.407 490.214L166.343 490.177L166.407 490.139L166.343 490.102L166.407 490.064L166.343 490.027L166.407 489.989L166.343 489.951L166.407 489.914L166.343 489.876L166.407 489.839L166.343 489.801L166.407 489.764L166.343 489.726L166.407 489.689L166.343 489.651L166.407 489.614L166.343 489.576L166.407 489.539L166.343 489.501L166.407 489.464L166.343 489.426L166.407 489.389L166.343 489.351L166.407 489.313L166.343 489.276L166.407 489.238L166.343 489.201L166.407 489.163L166.343 489.126L166.407 489.088L166.343 489.051L166.407 489.013L166.343 488.976L166.407 488.938L166.343 488.901L166.407 488.863L166.343 488.826L166.407 488.788L166.343 488.751L166.407 488.713L166.343 488.675L166.407 488.638L166.343 488.6L166.407 488.563L166.343 488.525L166.407 488.488L166.343 488.45L166.407 488.413L166.343 488.375L166.407 488.338L166.343 488.3L166.407 488.263L166.343 488.225L166.407 488.188L166.343 488.15L166.407 488.113L166.343 488.075L166.407 488.037L166.343 488L179.339 495.502Z" fill="#073669"/>
<path d="M159.746 473.712H159.712L172.618 475.705C172.835 478.058 173.894 480.393 175.789 482.543L172.757 484.292C172.696 483.973 172.648 483.654 172.618 483.335L159.712 481.338L159.746 481.267H159.712L159.746 481.192H159.712L159.746 481.117H159.712L159.746 481.042H159.712L159.746 480.967H159.712L159.746 480.892H159.712L159.746 480.817H159.712L159.746 480.742H159.712L159.746 480.667H159.712L159.746 480.592H159.712L159.746 480.516H159.712L159.746 480.441H159.712L159.746 480.366H159.712L159.746 480.291H159.712L159.746 480.216H159.712L159.746 480.141H159.712L159.746 480.066H159.712L159.746 479.991H159.712L159.746 479.916H159.712L159.746 479.841H159.712L159.746 479.766H159.712L159.746 479.691H159.712L159.746 479.616H159.712L159.746 479.541H159.712L159.746 479.466H159.712L159.746 479.391H159.712L159.746 479.316H159.712L159.746 479.24H159.712L159.746 479.165H159.712L159.746 479.09H159.712L159.746 479.015H159.712L159.746 478.94H159.712L159.746 478.865H159.712L159.746 478.79H159.712L159.746 478.715H159.712L159.746 478.64H159.712L159.746 478.565H159.712L159.746 478.49H159.712L159.746 478.415H159.712L159.746 478.34H159.712L159.746 478.265H159.712L159.746 478.19H159.712L159.746 478.115H159.712L159.746 478.04H159.712L159.746 477.964H159.712L159.746 477.889H159.712L159.746 477.814H159.712L159.746 477.739H159.712L159.746 477.664H159.712L159.746 477.589H159.712L159.746 477.514H159.712L159.746 477.439H159.712L159.746 477.364H159.712L159.746 477.289H159.712L159.746 477.214H159.712L159.746 477.139H159.712L159.746 477.064H159.712L159.746 476.989H159.712L159.746 476.914H159.712L159.746 476.839H159.712L159.746 476.763H159.712L159.746 476.688H159.712L159.746 476.613H159.712L159.746 476.538H159.712L159.746 476.463H159.712L159.746 476.388H159.712L159.746 476.313H159.712L159.746 476.238H159.712L159.746 476.163H159.712L159.746 476.088H159.712L159.746 476.013H159.712L159.746 475.938H159.712L159.746 475.863H159.712L159.746 475.788H159.712L159.746 475.713H159.712L159.746 475.638H159.712L159.746 475.563H159.712L159.746 475.487H159.712L159.746 475.412H159.712L159.746 475.337H159.712L159.746 475.262H159.712L159.746 475.187H159.712L159.746 475.112H159.712L159.746 475.037H159.712L159.746 474.962H159.712L159.746 474.887H159.712L159.746 474.812H159.712L159.746 474.737H159.712L159.746 474.662H159.712L159.746 474.587H159.712L159.746 474.512H159.712L159.746 474.437H159.712L159.746 474.362H159.712L159.746 474.287H159.712L159.746 474.211H159.712L159.746 474.136H159.712L159.746 474.061H159.712L159.746 473.986H159.712L159.746 473.911H159.712L159.746 473.836H159.712L159.746 473.761V473.712Z" fill="#073669"/>
<path d="M183.092 461.722L182.585 460.629H182.619L182.585 460.554H182.619L182.585 460.479H182.619L182.585 460.404H182.619L182.585 460.329H182.619L182.585 460.254H182.619L182.585 460.179H182.619L182.585 460.104H182.619L182.585 460.029H182.619L182.585 459.954H182.619L182.585 459.879H182.619L182.585 459.804H182.619L182.585 459.729H182.619L182.585 459.654H182.619L182.585 459.579H182.619L182.585 459.504H182.619L182.585 459.428H182.619L182.585 459.353H182.619L182.585 459.278H182.619L182.585 459.203H182.619L182.585 459.128H182.619L182.585 459.053H182.619L182.585 458.978H182.619L182.585 458.903H182.619L182.585 458.828H182.619L182.585 458.753H182.619L182.585 458.678H182.619L182.585 458.603H182.619L182.585 458.528H182.619L182.585 458.453H182.619L182.585 458.378H182.619L182.585 458.303H182.619L182.585 458.227H182.619L182.585 458.152H182.619L182.585 458.077H182.619L182.585 458.002H182.619L182.585 457.927H182.619L182.585 457.852H182.619L182.585 457.777H182.619L182.585 457.702H182.619L182.585 457.627H182.619L182.585 457.552H182.619L182.585 457.477H182.619L182.585 457.402H182.619L182.585 457.327H182.619L182.585 457.252H182.619L182.585 457.177H182.619L182.585 457.102H182.619L182.585 457.027H182.619L182.585 456.952H182.619L182.585 456.876H182.619L182.585 456.801H182.619L182.585 456.726H182.619L182.585 456.651H182.619L182.585 456.576H182.619L182.585 456.501H182.619L182.585 456.426H182.619L182.585 456.351H182.619L182.585 456.276H182.619L182.585 456.201H182.619L182.585 456.126H182.619L182.585 456.051H182.619L182.585 455.976H182.619L182.585 455.901H182.619L182.585 455.826H182.619L182.585 455.751H182.619L182.585 455.675H182.619L182.585 455.6H182.619L182.585 455.525H182.619L182.585 455.45H182.619L182.585 455.375H182.619L182.585 455.3H182.619L182.585 455.225H182.619L182.585 455.15H182.619L182.585 455.075H182.619L182.585 455H182.619L182.585 454.925H182.619L182.585 454.85H182.619L182.585 454.775H182.619L182.585 454.7H182.619L182.585 454.625H182.619L182.585 454.55H182.619L182.585 454.475H182.619L182.585 454.399H182.619L182.585 454.324H182.619L182.585 454.249H182.619L182.585 454.174H182.619L182.585 454.099H182.619L182.585 454.024H182.619L182.585 453.949H182.619L182.585 453.874H182.619L182.585 453.799H182.619L182.585 453.724H182.619L182.585 453.649H182.619L182.585 453.574H182.619L182.585 453.499H182.619L182.585 453.424H182.619L182.585 453.349H182.619L182.585 453.274H182.619L182.585 453.199H182.619L182.585 453.123H182.619L186.042 460.498C185.021 460.881 184.038 461.309 183.092 461.774V461.722Z" fill="#073669"/>
<path d="M231.668 472.92C231.282 470.894 230.272 468.897 228.636 467.04L238.082 461.586L238.018 461.624L238.082 461.661L238.018 461.699L238.082 461.737L238.018 461.774L238.082 461.812L238.018 461.849L238.082 461.887L238.018 461.924L238.082 461.962L238.018 461.999L238.082 462.037L238.018 462.074L238.082 462.112L238.018 462.149L238.082 462.187L238.018 462.224L238.082 462.262L238.018 462.3L238.082 462.337L238.018 462.375L238.082 462.412L238.018 462.45L238.082 462.487L238.018 462.525L238.082 462.562L238.018 462.6L238.082 462.637L238.018 462.675L238.082 462.712L238.018 462.75L238.082 462.787L238.018 462.825L238.082 462.862L238.018 462.9L238.082 462.938L238.018 462.975L238.082 463.013L238.018 463.05L238.082 463.088L238.018 463.125L238.082 463.163L238.018 463.2L238.082 463.238L238.018 463.275L238.082 463.313L238.018 463.35L238.082 463.388L238.018 463.425L238.082 463.463L238.018 463.5L238.082 463.538L238.018 463.576L238.082 463.613L238.018 463.651L238.082 463.688L238.018 463.726L238.082 463.763L238.018 463.801L238.082 463.838L238.018 463.876L238.082 463.913L238.018 463.951L238.082 463.988L238.018 464.026L238.082 464.063L238.018 464.101L238.082 464.138L238.018 464.176L238.082 464.214L238.018 464.251L238.082 464.289L238.018 464.326L238.082 464.364L238.018 464.401L238.082 464.439L238.018 464.476L238.082 464.514L238.018 464.551L238.082 464.589L238.018 464.626L238.082 464.664L238.018 464.701L238.082 464.739L238.018 464.776L238.082 464.814L238.018 464.852L238.082 464.889L238.018 464.927L238.082 464.964L238.018 465.002L238.082 465.039L238.018 465.077L238.082 465.114L238.018 465.152L238.082 465.189L238.018 465.227L238.082 465.264L238.018 465.302L238.082 465.339L238.018 465.377L238.082 465.414L238.018 465.452L238.082 465.49L238.018 465.527L238.082 465.565L238.018 465.602L238.082 465.64L238.018 465.677L238.082 465.715L238.018 465.752L238.082 465.79L238.018 465.827L238.082 465.865L238.018 465.902L238.082 465.94L238.018 465.977L238.082 466.015L238.018 466.053L238.082 466.09L238.018 466.128L238.082 466.165L238.018 466.203L238.082 466.24L238.018 466.278L238.082 466.315L238.018 466.353L238.082 466.39L238.018 466.428L238.082 466.465L238.018 466.503L238.082 466.54L238.018 466.578L238.082 466.615L238.018 466.653L238.082 466.691L238.018 466.728L238.082 466.766L238.018 466.803L238.082 466.841L238.018 466.878L238.082 466.916L238.018 466.953L238.082 466.991L238.018 467.028L238.082 467.066L238.018 467.103L238.082 467.141L238.018 467.178L238.082 467.216L238.018 467.253L238.082 467.291L238.018 467.328L238.082 467.366L238.018 467.404L238.082 467.441L238.018 467.479L238.082 467.516L238.018 467.554L238.082 467.591L238.018 467.629L238.082 467.666L238.018 467.704L238.082 467.741L238.018 467.779L238.082 467.816L238.018 467.854L238.082 467.891L238.018 467.929L238.082 467.967L238.018 468.004L238.082 468.042L238.018 468.079L238.082 468.117L238.018 468.154L238.082 468.192L238.018 468.229L238.082 468.267L238.018 468.304L238.082 468.342L238.018 468.379L238.082 468.417L238.018 468.454L238.082 468.492L238.018 468.529L238.082 468.567L238.018 468.605L238.082 468.642L238.018 468.68L238.082 468.717L238.018 468.755L238.082 468.792L238.018 468.83L238.082 468.867L238.018 468.905L238.082 468.942L238.018 468.98L238.082 469.017L238.018 469.055L238.082 469.092L238.018 469.13L238.082 469.167L231.668 472.872V472.92Z" fill="#073669"/>
<path opacity="0.44" d="M243.835 426.511L234.922 425.134L231.634 432.216L240.551 433.597C240.701 435.226 241.433 436.836 242.743 438.322L236.216 442.09L245.197 447.273L251.723 443.505C254.297 444.259 257.09 444.683 259.908 444.769L262.298 449.918L274.563 448.019L272.176 442.874C273.347 442.435 274.458 441.917 275.486 441.324C276.514 440.731 277.407 440.089 278.169 439.414L287.082 440.791L290.369 433.709L281.453 432.328C281.303 430.699 280.571 429.089 279.261 427.603L285.787 423.835L276.807 418.652L270.281 422.42C267.706 421.666 264.914 421.242 262.096 421.156L259.705 416.007L247.441 417.906L249.828 423.051C248.657 423.49 247.546 424.008 246.518 424.601C245.49 425.194 244.596 425.836 243.835 426.511ZM253.723 428.759C257.743 426.44 264.257 426.44 268.277 428.759C272.296 431.078 272.296 434.843 268.277 437.162C264.257 439.481 257.743 439.481 253.723 437.162C249.704 434.843 249.704 431.078 253.723 428.759Z" fill="#37474F"/>
<path d="M252.571 436.37C249.753 434.051 250.136 430.835 253.723 428.763C257.743 426.444 264.257 426.444 268.277 428.763C271.482 430.613 272.127 433.379 270.221 435.601C269.736 435.038 269.091 434.505 268.277 434.036C264.257 431.716 257.743 431.716 253.723 434.036C252.909 434.505 252.263 435.038 251.779 435.601C252.008 435.867 252.271 436.126 252.575 436.374L252.571 436.37Z" fill="#073669"/>
<path d="M275.478 441.32C276.507 440.727 277.4 440.086 278.162 439.41L287.075 440.787L290.339 433.754H290.362L290.339 433.807H290.362L290.339 433.859H290.362L290.339 433.912H290.362L290.339 433.965H290.362L290.339 434.017H290.362L290.339 434.07H290.362L290.339 434.122H290.362L290.339 434.175H290.362L290.339 434.227H290.362L290.339 434.28H290.362L290.339 434.332H290.362L290.339 434.385H290.362L290.339 434.437H290.362L290.339 434.49H290.362L290.339 434.542H290.362L290.339 434.595H290.362L290.339 434.648H290.362L290.339 434.7H290.362L290.339 434.753H290.362L290.339 434.805H290.362L290.339 434.858H290.362L290.339 434.91H290.362L290.339 434.963H290.362L290.339 435.015H290.362L290.339 435.068H290.362L290.339 435.12H290.362L290.339 435.173H290.362L290.339 435.226H290.362L290.339 435.278H290.362L290.339 435.331H290.362L290.339 435.383H290.362L290.339 435.436H290.362L290.339 435.488H290.362L290.339 435.541H290.362L290.339 435.593H290.362L290.339 435.646H290.362L290.339 435.698H290.362L290.339 435.751H290.362L290.339 435.803H290.362L290.339 435.856H290.362L290.339 435.909H290.362L290.339 435.961H290.362L290.339 436.014H290.362L290.339 436.066H290.362L290.339 436.119H290.362L290.339 436.171H290.362L290.339 436.224H290.362L290.339 436.276H290.362L290.339 436.329H290.362L290.339 436.381H290.362L290.339 436.434H290.362L290.339 436.487H290.362L290.339 436.539H290.362L290.339 436.592H290.362L290.339 436.644H290.362L290.339 436.697H290.362L290.339 436.749H290.362L290.339 436.802H290.362L290.339 436.854H290.362L290.339 436.907H290.362L290.339 436.959H290.362L290.339 437.012H290.362L290.339 437.064H290.362L290.339 437.117H290.362L290.339 437.17H290.362L290.339 437.222H290.362L290.339 437.275H290.362L290.339 437.327H290.362L290.339 437.38H290.362L290.339 437.432H290.362L290.339 437.485H290.362L290.339 437.537H290.362L290.339 437.59H290.362L290.339 437.642H290.362L290.339 437.695H290.362L290.339 437.748H290.362L290.339 437.8H290.362L290.339 437.853H290.362L290.339 437.905H290.362L290.339 437.958H290.362L290.339 438.01H290.362L290.339 438.063H290.362L290.339 438.115H290.362L290.339 438.168H290.362L290.339 438.22H290.362L290.339 438.273H290.362L290.339 438.326H290.362L290.339 438.378H290.362L290.339 438.431H290.362L290.339 438.483H290.362L290.339 438.536H290.362L290.339 438.588H290.362L290.339 438.641H290.362L290.339 438.693H290.362L290.339 438.746H290.362L290.339 438.798H290.362L290.339 438.851H290.362L290.339 438.903H290.362L290.339 438.956H290.362L290.339 439.009H290.362L287.075 446.094L278.162 444.717C277.4 445.392 276.507 446.034 275.478 446.627C275.069 446.864 274.641 447.085 274.21 447.295L274.559 448.049L272.172 442.904C273.343 442.465 274.454 441.947 275.482 441.354L275.478 441.32Z" fill="#073669"/>
<path d="M245.197 447.269L251.723 443.501C254.297 444.255 257.09 444.679 259.908 444.766L262.298 449.915L274.563 448.016H274.54L274.563 448.068H274.54L274.563 448.121H274.54L274.563 448.173H274.54L274.563 448.226H274.54L274.563 448.278H274.54L274.563 448.331H274.54L274.563 448.383H274.54L274.563 448.436H274.54L274.563 448.489H274.54L274.563 448.541H274.54L274.563 448.594H274.54L274.563 448.646H274.54L274.563 448.699H274.54L274.563 448.751H274.54L274.563 448.804H274.54L274.563 448.856H274.54L274.563 448.909H274.54L274.563 448.961H274.54L274.563 449.014H274.54L274.563 449.067H274.54L274.563 449.119H274.54L274.563 449.172H274.54L274.563 449.224H274.54L274.563 449.277H274.54L274.563 449.329H274.54L274.563 449.382H274.54L274.563 449.434H274.54L274.563 449.487H274.54L274.563 449.539H274.54L274.563 449.592H274.54L274.563 449.644H274.54L274.563 449.697H274.54L274.563 449.75H274.54L274.563 449.802H274.54L274.563 449.855H274.54L274.563 449.907H274.54L274.563 449.96H274.54L274.563 450.012H274.54L274.563 450.065H274.54L274.563 450.117H274.54L274.563 450.17H274.54L274.563 450.222H274.54L274.563 450.275H274.54L274.563 450.328H274.54L274.563 450.38H274.54L274.563 450.433H274.54L274.563 450.485H274.54L274.563 450.538H274.54L274.563 450.59H274.54L274.563 450.643H274.54L274.563 450.695H274.54L274.563 450.748H274.54L274.563 450.8H274.54L274.563 450.853H274.54L274.563 450.905H274.54L274.563 450.958H274.54L274.563 451.011H274.54L274.563 451.063H274.54L274.563 451.116H274.54L274.563 451.168H274.54L274.563 451.221H274.54L274.563 451.273H274.54L274.563 451.326H274.54L274.563 451.378H274.54L274.563 451.431H274.54L274.563 451.483H274.54L274.563 451.536H274.54L274.563 451.589H274.54L274.563 451.641H274.54L274.563 451.694H274.54L274.563 451.746H274.54L274.563 451.799H274.54L274.563 451.851H274.54L274.563 451.904H274.54L274.563 451.956H274.54L274.563 452.009H274.54L274.563 452.061H274.54L274.563 452.114H274.54L274.563 452.166H274.54L274.563 452.219H274.54L274.563 452.272H274.54L274.563 452.324H274.54L274.563 452.377H274.54L274.563 452.429H274.54L274.563 452.482H274.54L274.563 452.534H274.54L274.563 452.587H274.54L274.563 452.639H274.54L274.563 452.692H274.54L274.563 452.744H274.54L274.563 452.797H274.54L274.563 452.85H274.54L274.563 452.902H274.54L274.563 452.955H274.54L274.563 453.007H274.54L274.563 453.06H274.54L274.563 453.112H274.54L274.563 453.165H274.54L274.563 453.217H274.54L274.563 453.27H274.54L274.563 453.322L262.298 455.221L259.908 450.072C257.09 449.986 254.297 449.562 251.723 448.808L245.197 452.576L236.216 447.393L236.261 447.366L236.216 447.34L236.261 447.314L236.216 447.288L236.261 447.261L236.216 447.235L236.261 447.209L236.216 447.183L236.261 447.156L236.216 447.13L236.261 447.104L236.216 447.077L236.261 447.051L236.216 447.025L236.261 446.999L236.216 446.972L236.261 446.946L236.216 446.92L236.261 446.894L236.216 446.867L236.261 446.841L236.216 446.815L236.261 446.788L236.216 446.762L236.261 446.736L236.216 446.71L236.261 446.683L236.216 446.657L236.261 446.631L236.216 446.605L236.261 446.578L236.216 446.552L236.261 446.526L236.216 446.499L236.261 446.473L236.216 446.447L236.261 446.421L236.216 446.394L236.261 446.368L236.216 446.342L236.261 446.316L236.216 446.289L236.261 446.263L236.216 446.237L236.261 446.21L236.216 446.184L236.261 446.158L236.216 446.132L236.261 446.105L236.216 446.079L236.261 446.053L236.216 446.027L236.261 446L236.216 445.974L236.261 445.948L236.216 445.922L236.261 445.895L236.216 445.869L236.261 445.843L236.216 445.816L236.261 445.79L236.216 445.764L236.261 445.738L236.216 445.711L236.261 445.685L236.216 445.659L236.261 445.633L236.216 445.606L236.261 445.58L236.216 445.554L236.261 445.527L236.216 445.501L236.261 445.475L236.216 445.449L236.261 445.422L236.216 445.396L236.261 445.37L236.216 445.344L236.261 445.317L236.216 445.291L236.261 445.265L236.216 445.238L236.261 445.212L236.216 445.186L236.261 445.16L236.216 445.133L236.261 445.107L236.216 445.081L236.261 445.055L236.216 445.028L236.261 445.002L236.216 444.976L236.261 444.949L236.216 444.923L236.261 444.897L236.216 444.871L236.261 444.844L236.216 444.818L236.261 444.792L236.216 444.766L236.261 444.739L236.216 444.713L236.261 444.687L236.216 444.661L236.261 444.634L236.216 444.608L236.261 444.582L236.216 444.555L236.261 444.529L236.216 444.503L236.261 444.477L236.216 444.45L236.261 444.424L236.216 444.398L236.261 444.372L236.216 444.345L236.261 444.319L236.216 444.293L236.261 444.266L236.216 444.24L236.261 444.214L236.216 444.188L236.261 444.161L236.216 444.135L236.261 444.109L236.216 444.083L236.261 444.056L236.216 444.03L236.261 444.004L236.216 443.977L236.261 443.951L236.216 443.925L236.261 443.899L236.216 443.872L236.261 443.846L236.216 443.82L236.261 443.794L236.216 443.767L236.261 443.741L236.216 443.715L236.261 443.688L236.216 443.662L236.261 443.636L236.216 443.61L236.261 443.583L236.216 443.557L236.261 443.531L236.216 443.505L236.261 443.478L236.216 443.452L236.261 443.426L236.216 443.399L236.261 443.373L236.216 443.347L236.261 443.321L236.216 443.294L236.261 443.268L236.216 443.242L236.261 443.216L236.216 443.189L236.261 443.163L236.216 443.137L236.261 443.111L236.216 443.084L236.261 443.058L236.216 443.032L236.261 443.005L236.216 442.979L236.261 442.953L236.216 442.927L236.261 442.9L236.216 442.874L236.261 442.848L236.216 442.822L236.261 442.795L236.216 442.769L236.261 442.743L236.216 442.716L236.261 442.69L236.216 442.664L236.261 442.638L236.216 442.611L236.261 442.585L236.216 442.559L236.261 442.533L236.216 442.506L236.261 442.48L236.216 442.454L236.261 442.427L236.216 442.401L236.261 442.375L236.216 442.349L236.261 442.322L236.216 442.296L236.261 442.27L236.216 442.244L236.261 442.217L236.216 442.191L236.261 442.165L236.216 442.138L236.261 442.112L236.216 442.086L245.197 447.269Z" fill="#073669"/>
<path d="M231.657 432.216H231.634L240.551 433.593C240.701 435.222 241.433 436.832 242.743 438.318L240.649 439.526C240.607 439.305 240.573 439.087 240.555 438.866L231.638 437.485L231.661 437.436H231.638L231.661 437.384H231.638L231.661 437.331H231.638L231.661 437.278H231.638L231.661 437.226H231.638L231.661 437.173H231.638L231.661 437.121H231.638L231.661 437.068H231.638L231.661 437.016H231.638L231.661 436.963H231.638L231.661 436.911H231.638L231.661 436.858H231.638L231.661 436.806H231.638L231.661 436.753H231.638L231.661 436.7H231.638L231.661 436.648H231.638L231.661 436.595H231.638L231.661 436.543H231.638L231.661 436.49H231.638L231.661 436.438H231.638L231.661 436.385H231.638L231.661 436.333H231.638L231.661 436.28H231.638L231.661 436.228H231.638L231.661 436.175H231.638L231.661 436.123H231.638L231.661 436.07H231.638L231.661 436.017H231.638L231.661 435.965H231.638L231.661 435.912H231.638L231.661 435.86H231.638L231.661 435.807H231.638L231.661 435.755H231.638L231.661 435.702H231.638L231.661 435.65H231.638L231.661 435.597H231.638L231.661 435.545H231.638L231.661 435.492H231.638L231.661 435.439H231.638L231.661 435.387H231.638L231.661 435.334H231.638L231.661 435.282H231.638L231.661 435.229H231.638L231.661 435.177H231.638L231.661 435.124H231.638L231.661 435.072H231.638L231.661 435.019H231.638L231.661 434.967H231.638L231.661 434.914H231.638L231.661 434.861H231.638L231.661 434.809H231.638L231.661 434.756H231.638L231.661 434.704H231.638L231.661 434.651H231.638L231.661 434.599H231.638L231.661 434.546H231.638L231.661 434.494H231.638L231.661 434.441H231.638L231.661 434.389H231.638L231.661 434.336H231.638L231.661 434.284H231.638L231.661 434.231H231.638L231.661 434.178H231.638L231.661 434.126H231.638L231.661 434.073H231.638L231.661 434.021H231.638L231.661 433.968H231.638L231.661 433.916H231.638L231.661 433.863H231.638L231.661 433.811H231.638L231.661 433.758H231.638L231.661 433.706H231.638L231.661 433.653H231.638L231.661 433.6H231.638L231.661 433.548H231.638L231.661 433.495H231.638L231.661 433.443H231.638L231.661 433.39H231.638L231.661 433.338H231.638L231.661 433.285H231.638L231.661 433.233H231.638L231.661 433.18H231.638L231.661 433.128H231.638L231.661 433.075H231.638L231.661 433.023H231.638L231.661 432.97H231.638L231.661 432.917H231.638L231.661 432.865H231.638L231.661 432.812H231.638L231.661 432.76H231.638L231.661 432.707H231.638L231.661 432.655H231.638L231.661 432.602H231.638L231.661 432.55H231.638L231.661 432.497H231.638L231.661 432.445H231.638L231.661 432.392H231.638L231.661 432.339H231.638L231.661 432.287H231.638L231.661 432.234H231.638L231.661 432.182L231.657 432.216Z" fill="#073669"/>
<path d="M247.79 423.933L247.441 423.178H247.464L247.441 423.126H247.464L247.441 423.073H247.464L247.441 423.021H247.464L247.441 422.968H247.464L247.441 422.916H247.464L247.441 422.863H247.464L247.441 422.811H247.464L247.441 422.758H247.464L247.441 422.706H247.464L247.441 422.653H247.464L247.441 422.601H247.464L247.441 422.548H247.464L247.441 422.495H247.464L247.441 422.443H247.464L247.441 422.39H247.464L247.441 422.338H247.464L247.441 422.285H247.464L247.441 422.233H247.464L247.441 422.18H247.464L247.441 422.128H247.464L247.441 422.075H247.464L247.441 422.023H247.464L247.441 421.97H247.464L247.441 421.917H247.464L247.441 421.865H247.464L247.441 421.812H247.464L247.441 421.76H247.464L247.441 421.707H247.464L247.441 421.655H247.464L247.441 421.602H247.464L247.441 421.55H247.464L247.441 421.497H247.464L247.441 421.445H247.464L247.441 421.392H247.464L247.441 421.34H247.464L247.441 421.287H247.464L247.441 421.234H247.464L247.441 421.182H247.464L247.441 421.129H247.464L247.441 421.077H247.464L247.441 421.024H247.464L247.441 420.972H247.464L247.441 420.919H247.464L247.441 420.867H247.464L247.441 420.814H247.464L247.441 420.762H247.464L247.441 420.709H247.464L247.441 420.656H247.464L247.441 420.604H247.464L247.441 420.551H247.464L247.441 420.499H247.464L247.441 420.446H247.464L247.441 420.394H247.464L247.441 420.341H247.464L247.441 420.289H247.464L247.441 420.236H247.464L247.441 420.184H247.464L247.441 420.131H247.464L247.441 420.079H247.464L247.441 420.026H247.464L247.441 419.973H247.464L247.441 419.921H247.464L247.441 419.868H247.464L247.441 419.816H247.464L247.441 419.763H247.464L247.441 419.711H247.464L247.441 419.658H247.464L247.441 419.606H247.464L247.441 419.553H247.464L247.441 419.501H247.464L247.441 419.448H247.464L247.441 419.395H247.464L247.441 419.343H247.464L247.441 419.29H247.464L247.441 419.238H247.464L247.441 419.185H247.464L247.441 419.133H247.464L247.441 419.08H247.464L247.441 419.028H247.464L247.441 418.975H247.464L247.441 418.923H247.464L247.441 418.87H247.464L247.441 418.817H247.464L247.441 418.765H247.464L247.441 418.712H247.464L247.441 418.66H247.464L247.441 418.607H247.464L247.441 418.555H247.464L247.441 418.502H247.464L247.441 418.45H247.464L247.441 418.397H247.464L247.441 418.345H247.464L247.441 418.292H247.464L247.441 418.24H247.464L247.441 418.187H247.464L247.441 418.134H247.464L247.441 418.082H247.464L247.441 418.029H247.464L247.441 417.977H247.464L247.441 417.924H247.464L249.828 423.017C249.122 423.284 248.443 423.576 247.79 423.899V423.933Z" fill="#073669"/>
<path d="M281.351 431.668C281.085 430.268 280.387 428.89 279.257 427.603L285.783 423.835L285.738 423.862L285.783 423.888L285.738 423.914L285.783 423.94L285.738 423.967L285.783 423.993L285.738 424.019L285.783 424.045L285.738 424.072L285.783 424.098L285.738 424.124L285.783 424.15L285.738 424.177L285.783 424.203L285.738 424.229L285.783 424.256L285.738 424.282L285.783 424.308L285.738 424.334L285.783 424.361L285.738 424.387L285.783 424.413L285.738 424.439L285.783 424.466L285.738 424.492L285.783 424.518L285.738 424.545L285.783 424.571L285.738 424.597L285.783 424.623L285.738 424.65L285.783 424.676L285.738 424.702L285.783 424.728L285.738 424.755L285.783 424.781L285.738 424.807L285.783 424.834L285.738 424.86L285.783 424.886L285.738 424.912L285.783 424.939L285.738 424.965L285.783 424.991L285.738 425.017L285.783 425.044L285.738 425.07L285.783 425.096L285.738 425.122L285.783 425.149L285.738 425.175L285.783 425.201L285.738 425.228L285.783 425.254L285.738 425.28L285.783 425.306L285.738 425.333L285.783 425.359L285.738 425.385L285.783 425.411L285.738 425.438L285.783 425.464L285.738 425.49L285.783 425.517L285.738 425.543L285.783 425.569L285.738 425.595L285.783 425.622L285.738 425.648L285.783 425.674L285.738 425.7L285.783 425.727L285.738 425.753L285.783 425.779L285.738 425.806L285.783 425.832L285.738 425.858L285.783 425.884L285.738 425.911L285.783 425.937L285.738 425.963L285.783 425.989L285.738 426.016L285.783 426.042L285.738 426.068L285.783 426.095L285.738 426.121L285.783 426.147L285.738 426.173L285.783 426.2L285.738 426.226L285.783 426.252L285.738 426.278L285.783 426.305L285.738 426.331L285.783 426.357L285.738 426.383L285.783 426.41L285.738 426.436L285.783 426.462L285.738 426.489L285.783 426.515L285.738 426.541L285.783 426.567L285.738 426.594L285.783 426.62L285.738 426.646L285.783 426.672L285.738 426.699L285.783 426.725L285.738 426.751L285.783 426.778L285.738 426.804L285.783 426.83L285.738 426.856L285.783 426.883L285.738 426.909L285.783 426.935L285.738 426.961L285.783 426.988L285.738 427.014L285.783 427.04L285.738 427.067L285.783 427.093L285.738 427.119L285.783 427.145L285.738 427.172L285.783 427.198L285.738 427.224L285.783 427.25L285.738 427.277L285.783 427.303L285.738 427.329L285.783 427.356L285.738 427.382L285.783 427.408L285.738 427.434L285.783 427.461L285.738 427.487L285.783 427.513L285.738 427.539L285.783 427.566L285.738 427.592L285.783 427.618L285.738 427.644L285.783 427.671L285.738 427.697L285.783 427.723L285.738 427.75L285.783 427.776L285.738 427.802L285.783 427.828L285.738 427.855L285.783 427.881L285.738 427.907L285.783 427.933L285.738 427.96L285.783 427.986L285.738 428.012L285.783 428.039L285.738 428.065L285.783 428.091L285.738 428.117L285.783 428.144L285.738 428.17L285.783 428.196L285.738 428.222L285.783 428.249L285.738 428.275L285.783 428.301L285.738 428.328L285.783 428.354L285.738 428.38L285.783 428.406L285.738 428.433L285.783 428.459L285.738 428.485L285.783 428.511L285.738 428.538L285.783 428.564L285.738 428.59L285.783 428.617L285.738 428.643L285.783 428.669L285.738 428.695L285.783 428.722L285.738 428.748L285.783 428.774L285.738 428.8L285.783 428.827L285.738 428.853L285.783 428.879L285.738 428.905L285.783 428.932L285.738 428.958L285.783 428.984L285.738 429.011L285.783 429.037L285.738 429.063L285.783 429.089L285.738 429.116L285.783 429.142L281.351 431.701V431.668Z" fill="#073669"/>
<path opacity="0.47" d="M311.944 267.948C297.136 248.334 297.417 218.723 312.601 199.396C322.91 186.275 338.859 177.962 347.3 163.566C355.957 148.794 355.135 130.348 361.2 114.338C370.139 90.7429 395.305 74.3537 420.502 75.7198C405.517 85.6239 402.068 108.127 406.102 125.631C410.136 143.135 418.374 160.061 417.721 178.011C417.087 195.376 407.99 211.57 395.977 224.131C383.964 236.689 369.133 246.128 354.464 255.439C347.69 259.74 340.766 264.101 332.99 266.075C325.214 268.045 316.782 274.354 311.944 267.951V267.948Z" fill="#C7DAFB"/>
<path opacity="0.1" d="M334.679 273.952C345.194 259.729 354.377 244.649 362.176 228.92C362.292 228.763 362.378 228.594 362.427 228.41C364.904 223.396 367.242 218.314 369.43 213.173C380.639 208.035 391.039 200.627 399.535 191.698C400.143 191.06 400.09 190.047 399.479 189.45C398.841 188.846 397.835 188.868 397.231 189.506C389.815 197.298 380.902 203.895 371.265 208.763C375.374 198.671 378.924 188.358 381.915 177.872C381.983 177.827 382.051 177.778 382.114 177.722C390.292 170.186 397.861 161.888 404.616 153.058C405.149 152.359 405.018 151.365 404.32 150.828C403.622 150.295 402.623 150.427 402.09 151.125C396.443 158.507 390.209 165.51 383.529 171.999C387.556 156.705 390.389 141.063 391.958 125.214C392.044 124.34 391.406 123.559 390.532 123.473C389.657 123.386 388.877 124.024 388.791 124.899C387.826 134.66 386.374 144.343 384.456 153.913L374.826 129.74C374.5 128.922 373.577 128.524 372.759 128.851C371.94 129.177 371.543 130.1 371.869 130.919L383.086 159.074C383.139 159.209 383.214 159.329 383.3 159.438C381.007 169.856 378.148 180.128 374.755 190.216C367.617 181.013 361.181 171.184 355.623 160.961C355.203 160.188 354.239 159.903 353.465 160.323C352.692 160.744 352.407 161.708 352.827 162.481C358.798 173.47 365.763 184.016 373.52 193.822C371.483 199.64 369.265 205.393 366.867 211.071C366.705 211.285 366.6 211.533 366.563 211.795C364.679 216.228 362.686 220.615 360.585 224.953C354.254 216.656 348.793 207.686 344.354 198.24C343.978 197.448 343.033 197.103 342.237 197.478C341.441 197.853 341.1 198.799 341.475 199.594C346.234 209.72 352.137 219.313 359.016 228.136C351.368 243.471 342.383 258.179 332.119 272.065C331.647 272.706 331.725 273.585 332.27 274.132C332.326 274.189 332.386 274.241 332.453 274.29C333.159 274.812 334.157 274.662 334.679 273.956V273.952Z" fill="black"/>
<path opacity="0.1" d="M417.721 178.011C417.804 175.729 417.743 173.462 417.567 171.211C395.302 173.012 373.914 181.88 356.738 196.896C334.3 216.509 320.835 241.376 320.219 270.432C324.197 269.569 328.693 267.163 332.99 266.071C340.766 264.101 347.69 259.736 354.464 255.435C369.137 246.124 383.968 236.685 395.977 224.128C407.99 211.57 417.087 195.376 417.721 178.007V178.011Z" fill="black"/>
<path d="M321.687 279.304C350.913 280.835 380.568 272.601 404.822 256.227C429.077 239.849 447.8 215.421 457.302 187.739C426.337 178.413 392.784 183.885 366.349 202.507C339.91 221.129 323.33 247.006 321.687 279.304Z" fill="#C7DAF2"/>
<path opacity="0.1" d="M307.993 291.46C319.33 276.985 331.887 263.602 345.483 251.431C345.607 251.273 345.757 251.138 345.922 251.037C350.26 247.167 354.7 243.414 359.245 239.796C361.282 227.141 365.823 214.67 372.413 203.685C372.882 202.901 373.911 202.672 374.684 203.119C375.468 203.588 375.723 204.605 375.25 205.389C369.501 214.978 365.362 225.734 363.155 236.738C372.124 229.825 381.473 223.407 391.147 217.507C391.174 217.425 391.204 217.346 391.241 217.267C396.525 206.988 402.74 197.102 409.716 187.889C410.268 187.161 411.3 187.014 412.032 187.57C412.76 188.122 412.902 189.157 412.351 189.886C406.519 197.59 401.235 205.772 396.585 214.265C410.789 205.993 425.673 198.818 441.116 192.854C441.968 192.524 442.925 192.948 443.255 193.8C443.585 194.652 443.161 195.609 442.309 195.939C432.796 199.613 423.5 203.749 414.445 208.324L441.33 211.274C442.238 211.371 442.895 212.189 442.793 213.098C442.696 214.006 441.878 214.663 440.969 214.561L409.656 211.127C409.506 211.112 409.367 211.067 409.232 211.015C399.43 216.201 389.931 221.913 380.767 228.106C391.965 232.703 403.592 236.43 415.375 239.162C416.265 239.369 416.82 240.258 416.614 241.147C416.407 242.037 415.518 242.592 414.629 242.386C401.967 239.447 389.474 235.394 377.498 230.343C372.237 233.998 367.088 237.815 362.063 241.789C361.894 242.007 361.676 242.183 361.421 242.296C357.503 245.411 353.66 248.623 349.896 251.93C359.965 255.972 370.462 258.959 381.157 260.787C382.054 260.941 382.662 261.796 382.508 262.697C382.354 263.598 381.499 264.202 380.598 264.048C369.137 262.089 357.89 258.832 347.146 254.388C333.902 266.304 321.66 279.379 310.593 293.509C310.083 294.162 309.179 294.327 308.48 293.929C308.409 293.888 308.338 293.843 308.27 293.791C307.55 293.228 307.426 292.188 307.989 291.467L307.993 291.46Z" fill="black"/>
<path opacity="0.47" d="M149.917 391.713C165.191 371.485 164.898 340.947 149.238 321.015C138.606 307.481 122.157 298.91 113.451 284.059C104.523 268.826 105.367 249.802 99.1153 233.289C89.8946 208.951 63.9402 192.047 37.9558 193.458C53.4136 203.67 56.9675 226.882 52.8057 244.934C48.6438 262.986 40.1474 280.441 40.823 298.958C41.4759 316.871 50.858 333.572 63.246 346.524C75.634 359.475 90.9304 369.21 106.062 378.814C113.049 383.247 120.187 387.75 128.211 389.784C136.23 391.818 144.929 398.322 149.913 391.717L149.917 391.713Z" fill="#C7DAFB"/>
<path opacity="0.1" d="M126.47 397.906C115.624 383.235 106.152 367.683 98.1096 351.459C97.9895 351.297 97.9032 351.121 97.8506 350.933C95.2987 345.762 92.8857 340.523 90.6265 335.22C79.0641 329.921 68.3386 322.279 59.5758 313.073C58.9491 312.417 59.0016 311.37 59.6321 310.754C60.2888 310.127 61.3284 310.154 61.9513 310.81C69.5995 318.845 78.7902 325.65 88.7313 330.671C84.4944 320.264 80.8317 309.628 77.7469 298.812C77.6756 298.767 77.608 298.718 77.5442 298.658C69.1117 290.886 61.3058 282.325 54.3369 273.217C53.7852 272.496 53.9203 271.472 54.6446 270.916C55.3652 270.364 56.3934 270.503 56.9451 271.224C62.7694 278.839 69.198 286.059 76.0881 292.751C71.9375 276.977 69.0141 260.847 67.3966 244.499C67.3066 243.598 67.9671 242.795 68.8677 242.705C69.7684 242.615 70.5715 243.275 70.6616 244.176C71.6561 254.245 73.1572 264.232 75.1312 274.102L85.0611 249.171C85.3951 248.331 86.3521 247.918 87.1927 248.256C88.0333 248.59 88.4461 249.547 88.1084 250.387L76.5385 279.428C76.4822 279.567 76.4071 279.691 76.3208 279.803C78.6851 290.548 81.6348 301.143 85.1324 311.55C92.4916 302.058 99.1304 291.922 104.861 281.376C105.292 280.58 106.291 280.284 107.086 280.719C107.882 281.15 108.178 282.149 107.743 282.944C101.585 294.278 94.4018 305.151 86.4008 315.269C88.5024 321.27 90.7916 327.203 93.261 333.058C93.4261 333.279 93.5349 333.531 93.5762 333.805C95.5202 338.376 97.5767 342.902 99.7421 347.376C106.272 338.815 111.905 329.564 116.48 319.821C116.866 319.003 117.842 318.647 118.664 319.033C119.486 319.42 119.838 320.395 119.452 321.217C114.543 331.662 108.456 341.555 101.363 350.652C109.252 366.471 118.517 381.637 129.104 395.958C129.592 396.619 129.513 397.527 128.95 398.09C128.894 398.146 128.83 398.202 128.762 398.251C128.034 398.791 127.006 398.638 126.466 397.906H126.47Z" fill="black"/>
<path opacity="0.1" d="M40.823 298.955C40.7367 296.602 40.8005 294.263 40.9844 291.94C63.9478 293.798 86.003 302.944 103.724 318.433C126.864 338.661 140.753 364.309 141.387 394.273C137.281 393.383 132.647 390.899 128.215 389.777C120.195 387.743 113.053 383.243 106.066 378.807C90.9342 369.203 75.6378 359.468 63.2498 346.516C50.8618 333.565 41.4797 316.864 40.8268 298.951L40.823 298.955Z" fill="black"/>
<path d="M139.871 403.426C109.728 405.006 79.1429 396.513 54.1267 379.625C29.1105 362.733 9.80232 337.539 0 308.99C31.9364 299.371 66.541 305.016 93.8051 324.223C121.073 343.431 138.171 370.119 139.867 403.43L139.871 403.426Z" fill="#C7DAF2"/>
<path opacity="0.1" d="M153.989 415.961C142.299 401.032 129.344 387.232 115.32 374.675C115.192 374.51 115.039 374.375 114.866 374.27C110.393 370.28 105.814 366.411 101.127 362.677C99.0253 349.624 94.3418 336.762 87.5455 325.432C87.0614 324.625 85.9993 324.385 85.2037 324.846C84.3969 325.331 84.1342 326.378 84.6183 327.188C90.5477 337.077 94.8184 348.171 97.0926 359.52C87.842 352.39 78.201 345.773 68.2223 339.686C68.196 339.603 68.166 339.521 68.1247 339.438C62.6757 328.836 56.2659 318.643 49.0717 309.14C48.5013 308.39 47.4393 308.24 46.6812 308.81C45.9306 309.38 45.7805 310.45 46.351 311.201C52.3667 319.146 57.8158 327.586 62.6119 336.346C47.9609 327.815 32.6119 320.414 16.685 314.263C15.8069 313.925 14.8199 314.361 14.4784 315.239C14.1406 316.117 14.576 317.104 15.4541 317.446C25.264 321.232 34.8524 325.503 44.1931 330.217L16.4674 333.257C15.5292 333.358 14.8537 334.203 14.9588 335.137C15.0601 336.075 15.9045 336.751 16.8389 336.646L49.1355 333.103C49.2894 333.084 49.4358 333.043 49.5746 332.987C59.6847 338.335 69.4795 344.227 78.9328 350.614C67.3854 355.358 55.3915 359.198 43.2399 362.02C42.3204 362.234 41.75 363.149 41.9639 364.069C42.1778 364.988 43.0935 365.559 44.013 365.345C57.0727 362.316 69.9561 358.135 82.3103 352.923C87.7369 356.691 93.0471 360.627 98.2297 364.726C98.4061 364.951 98.6275 365.131 98.8902 365.247C102.932 368.464 106.895 371.774 110.779 375.185C100.395 379.355 89.5682 382.432 78.5388 384.32C77.6118 384.481 76.9851 385.36 77.1465 386.29C77.3041 387.217 78.186 387.844 79.1167 387.683C90.938 385.66 102.538 382.301 113.616 377.719C127.276 390.006 139.901 403.49 151.313 418.063C151.839 418.735 152.769 418.907 153.494 418.498C153.569 418.457 153.64 418.408 153.707 418.356C154.45 417.774 154.578 416.704 154 415.961H153.989Z" fill="black"/>
<path fill-rule="evenodd" clip-rule="evenodd" d="M348.602 24.9344L94.0753 171.894C85.0798 177.088 77.7206 189.78 77.7206 200.105L78.944 477.784C78.944 488.109 86.3032 492.301 95.2987 487.107L349.825 340.147C358.821 334.953 366.18 322.261 366.18 311.94L364.956 34.2605C364.956 23.9361 357.597 19.744 348.602 24.9381V24.9344Z" fill="#C7DAF2"/>
<path fill-rule="evenodd" clip-rule="evenodd" d="M345.577 27.2649L97.1601 170.696C88.3786 175.767 81.1995 188.152 81.1995 198.228L81.6123 472.95C81.6123 483.023 88.7951 487.122 97.573 482.051L345.99 338.62C354.771 333.55 361.951 321.161 361.951 311.088L361.538 36.3659C361.538 26.2929 354.359 22.1984 345.577 27.2687V27.2649Z" fill="white"/>
<path fill-rule="evenodd" clip-rule="evenodd" d="M345.577 27.2649L97.1601 170.696C88.3786 175.767 81.1995 188.152 81.1995 198.228V244.255L361.538 82.3888V36.3622C361.538 26.2892 354.359 22.1947 345.577 27.2649Z" fill="url(#paint0_linear_3976_69264)"/>
<path fill-rule="evenodd" clip-rule="evenodd" d="M143.616 182.605C146.299 181.055 148.483 177.287 148.483 174.209C148.483 171.132 146.296 169.886 143.616 171.436C140.937 172.982 138.749 176.754 138.749 179.831C138.749 182.909 140.937 184.151 143.616 182.605Z" fill="#F0F4FF"/>
<path fill-rule="evenodd" clip-rule="evenodd" d="M124.147 193.845C126.826 192.299 129.014 188.527 129.014 185.449C129.014 182.372 126.826 181.126 124.147 182.676C121.467 184.222 119.279 187.994 119.279 191.071C119.279 194.149 121.467 195.391 124.147 193.845Z" fill="#F0F4FF"/>
<path fill-rule="evenodd" clip-rule="evenodd" d="M104.681 205.085C107.36 203.539 109.548 199.767 109.548 196.69C109.548 193.612 107.36 192.366 104.681 193.916C101.997 195.466 99.8134 199.238 99.8134 202.312C99.8134 205.385 102.001 206.631 104.681 205.085Z" fill="#F0F4FF"/>
<path d="M131.281 372.716L148.832 383.487L189.862 339.539L206.228 280.182C206.933 277.626 205.864 274.917 203.605 273.528L192.834 266.919C191.003 265.793 188.702 265.756 186.833 266.814L136.245 295.464C133.179 297.202 131.284 300.452 131.284 303.976V372.72L131.281 372.716Z" fill="#D2E6F9"/>
<path d="M148.832 383.487L207.414 350.31V280.813C207.414 278.606 205.034 277.217 203.113 278.306L153.794 306.235C150.728 307.973 148.832 311.223 148.832 314.747V383.491V383.487Z" fill="#3668A1"/>
<path d="M171.079 327.117C171.079 321.957 174.37 315.907 178.434 313.606C182.495 311.306 185.79 313.625 185.79 318.785C185.79 322.437 184.124 326.509 181.722 329.406L184.082 341.255L172.79 347.65L175.151 333.129C172.749 332.953 171.083 330.765 171.083 327.113L171.079 327.117Z" fill="white"/>
<path d="M153.617 297.919C155.7 297.919 157.385 296.234 157.385 294.151V268.691C157.385 259.672 163.453 248.811 170.636 244.976C173.241 243.583 175.571 243.358 177.211 244.341C179.196 245.535 180.337 248.473 180.337 252.406V277.867C180.337 279.95 182.022 281.635 184.105 281.635C186.188 281.635 187.873 279.95 187.873 277.867V252.406C187.873 245.76 185.4 240.464 181.088 237.879C177.095 235.477 172.119 235.642 167.086 238.329C157.419 243.493 149.849 256.831 149.849 268.694V294.155C149.849 296.238 151.534 297.923 153.617 297.923V297.919Z" fill="#3668A1"/>
<path d="M285.975 217.399C289.555 212.659 291.919 207.029 291.919 202.42C291.919 195.11 285.975 193.098 278.664 197.928C271.354 202.762 265.41 212.636 265.41 219.947C265.41 224.556 267.774 227.051 271.354 227.063C263.255 235.405 257.457 247.01 257.457 256.133L260.993 253.795C260.993 244.049 268.918 230.879 278.664 224.435C288.411 217.992 296.336 220.679 296.336 230.425L299.872 228.087C299.872 218.964 294.07 215.027 285.975 217.391V217.399ZM278.664 220.908C273.305 224.45 268.945 222.972 268.945 217.613C268.945 212.253 273.305 205.01 278.664 201.467C284.024 197.924 288.384 199.403 288.384 204.762C288.384 210.122 284.024 217.365 278.664 220.908Z" fill="#A5A5A5"/>
<path d="M347.134 229.07L223.813 300.272V282.944L347.134 211.739V229.07Z" fill="#D2E6F9"/>
<path d="M347.134 257.221L223.813 328.423V311.096L347.134 239.894V257.221Z" fill="#D2E6F9"/>
<path d="M266.494 298.861C268.54 298.861 270.198 297.202 270.198 295.157C270.198 293.111 268.54 291.452 266.494 291.452C264.448 291.452 262.79 293.111 262.79 295.157C262.79 297.202 264.448 298.861 266.494 298.861Z" fill="#11345E"/>
<path d="M280.372 290.709C282.418 290.709 284.076 289.051 284.076 287.005C284.076 284.959 282.418 283.301 280.372 283.301C278.326 283.301 276.668 284.959 276.668 287.005C276.668 289.051 278.326 290.709 280.372 290.709Z" fill="#11345E"/>
<path d="M298.204 278.571C298.132 280.617 296.613 282.474 294.571 282.403C292.526 282.332 290.931 280.613 291.002 278.571C291.074 276.526 292.792 274.931 294.834 275.002C296.879 275.074 298.275 276.53 298.204 278.571Z" fill="#11345E"/>
<path d="M308.124 274.41C310.17 274.41 311.828 272.752 311.828 270.706C311.828 268.66 310.17 267.002 308.124 267.002C306.078 267.002 304.42 268.66 304.42 270.706C304.42 272.752 306.078 274.41 308.124 274.41Z" fill="#11345E"/>
<path d="M321.998 266.259C324.044 266.259 325.702 264.6 325.702 262.555C325.702 260.509 324.044 258.85 321.998 258.85C319.952 258.85 318.294 260.509 318.294 262.555C318.294 264.6 319.952 266.259 321.998 266.259Z" fill="#11345E"/>
<path d="M333.425 310.15L248.462 359.205C246.717 360.215 244.536 358.954 244.536 356.938V340.316C244.536 339.382 245.036 338.515 245.846 338.049L330.81 288.994C332.555 287.985 334.735 289.246 334.735 291.261V307.883C334.735 308.818 334.236 309.684 333.425 310.15Z" fill="#3668A1"/>
<path d="M271.309 340.001V329.924L273.681 328.554V336.432L277.062 334.48V336.68L271.309 340.001Z" fill="white"/>
<path d="M286.684 326.074C286.684 327.77 286.32 329.268 285.596 330.566C284.872 331.865 283.81 332.919 282.414 333.726C281.036 334.522 279.982 334.687 279.246 334.225C278.511 333.764 278.143 332.683 278.143 330.99C278.143 329.298 278.507 327.823 279.239 326.517C279.97 325.211 281.032 324.156 282.425 323.349C283.821 322.542 284.879 322.37 285.603 322.831C286.324 323.293 286.684 324.374 286.684 326.074ZM280.642 329.56C280.642 331.508 281.231 332.142 282.414 331.459C283.014 331.114 283.461 330.619 283.75 329.977C284.038 329.335 284.185 328.513 284.185 327.515C284.185 326.517 284.038 325.849 283.742 325.541C283.449 325.229 283.01 325.244 282.425 325.582C281.235 326.269 280.642 327.594 280.642 329.56Z" fill="white"/>
<path d="M291.795 322.276L295.586 320.088V325.518C294.558 326.517 293.424 327.372 292.193 328.085C290.839 328.866 289.795 329.02 289.056 328.547C288.317 328.074 287.949 327.001 287.949 325.334C287.949 323.668 288.354 322.208 289.161 320.838C289.972 319.465 291.101 318.361 292.561 317.517C293.113 317.198 293.634 316.958 294.126 316.793C294.618 316.627 295.045 316.534 295.409 316.507L294.659 319.078C294.025 319.086 293.33 319.307 292.576 319.742C291.882 320.144 291.349 320.711 290.97 321.446C290.591 322.182 290.403 323.03 290.403 323.991C290.403 324.952 290.576 325.552 290.917 325.849C291.259 326.145 291.754 326.108 292.396 325.736C292.749 325.533 293.071 325.304 293.368 325.057V323.477L291.799 324.381V322.279L291.795 322.276Z" fill="white"/>
<path d="M297.372 324.955V314.879L299.755 313.501V323.578L297.372 324.955Z" fill="white"/>
<path d="M310.015 317.656L306.904 319.453L303.696 314.207L303.643 314.237C303.718 315.31 303.756 316.14 303.756 316.729V321.27L301.654 322.482V312.405L304.754 310.615L307.948 315.772L307.985 315.753C307.929 314.77 307.903 313.97 307.903 313.355V308.799L310.015 307.579V317.656Z" fill="white"/>
<path fill-rule="evenodd" clip-rule="evenodd" d="M453.125 39.8225L346.147 101.589C342.368 103.773 339.272 109.106 339.272 113.445V201.764C339.272 206.102 342.365 207.866 346.147 205.682L453.125 143.915C456.904 141.731 460 136.398 460 132.06V43.7406C460 39.4021 456.908 37.6382 453.125 39.8225Z" fill="#D1D4EB"/>
<path fill-rule="evenodd" clip-rule="evenodd" d="M451.207 43.1701L348.973 102.197C345.359 104.284 342.406 109.38 342.406 113.527V197.928C342.406 202.075 345.363 203.76 348.973 201.674L451.207 142.647C454.821 140.56 457.775 135.463 457.775 131.316V46.9156C457.775 42.7685 454.817 41.0834 451.207 43.1701Z" fill="url(#paint1_linear_3976_69264)"/>
<path d="M401.7 101.927C403.791 99.1571 405.172 95.8733 405.172 93.1824C405.172 88.9152 401.7 87.7368 397.433 90.559C393.166 93.3813 389.691 99.1496 389.691 103.417C389.691 106.108 391.072 107.568 393.163 107.571C388.434 112.443 385.049 119.221 385.049 124.546L387.113 123.18C387.113 117.49 391.744 109.797 397.433 106.036C403.123 102.272 407.754 103.841 407.754 109.534L409.818 108.168C409.818 102.843 406.429 100.542 401.704 101.923L401.7 101.927ZM397.43 103.976C394.3 106.044 391.752 105.181 391.752 102.051C391.752 98.9207 394.296 94.6911 397.43 92.6232C400.559 90.5553 403.108 91.4185 403.108 94.5485C403.108 97.6784 400.559 101.908 397.43 103.976Z" fill="white"/>
<path d="M446.824 107.609L353.946 161.235V148.182L446.824 94.556V107.609Z" fill="white"/>
<path d="M446.824 128.059L353.946 181.685V168.636L446.824 115.01V128.059Z" fill="white"/>
<path d="M386.092 159.419C387.632 159.419 388.881 158.17 388.881 156.63C388.881 155.09 387.632 153.842 386.092 153.842C384.552 153.842 383.304 155.09 383.304 156.63C383.304 158.17 384.552 159.419 386.092 159.419Z" fill="#11345E"/>
<path d="M396.54 153.279C398.08 153.279 399.328 152.03 399.328 150.49C399.328 148.95 398.08 147.702 396.54 147.702C395 147.702 393.752 148.95 393.752 150.49C393.752 152.03 395 153.279 396.54 153.279Z" fill="#11345E"/>
<path d="M406.992 147.143C408.532 147.143 409.78 145.894 409.78 144.354C409.78 142.814 408.532 141.566 406.992 141.566C405.452 141.566 404.203 142.814 404.203 144.354C404.203 145.894 405.452 147.143 406.992 147.143Z" fill="#11345E"/>
<path d="M417.443 141.003C418.983 141.003 420.232 139.754 420.232 138.214C420.232 136.674 418.983 135.426 417.443 135.426C415.903 135.426 414.655 136.674 414.655 138.214C414.655 139.754 415.903 141.003 417.443 141.003Z" fill="#11345E"/>
<path d="M427.895 134.867C429.435 134.867 430.683 133.618 430.683 132.078C430.683 130.538 429.435 129.29 427.895 129.29C426.355 129.29 425.106 130.538 425.106 132.078C425.106 133.618 426.355 134.867 427.895 134.867Z" fill="#11345E"/>
<path d="M121.936 556.415C138.588 551.234 149.945 540.149 147.302 531.654C144.66 523.159 129.019 520.473 112.367 525.653C95.715 530.833 84.358 541.919 87.0004 550.414C89.6428 558.908 105.284 561.595 121.936 556.415Z" fill="#C8E6EB"/>
<path d="M401.584 518.25C422.523 511.736 436.804 497.798 433.482 487.118C430.159 476.439 410.492 473.062 389.554 479.576C368.615 486.09 354.334 500.028 357.656 510.707C360.978 521.387 380.646 524.764 401.584 518.25Z" fill="#C8E6EB"/>
<path d="M131.671 354.855C141.12 358.732 141.526 381.288 143.627 384.159C146.922 388.67 160.282 405.813 161.907 408.572C163.528 411.33 157.363 415.766 155.415 413.792C153.865 412.22 140.67 398.968 135.341 393.616C133.911 392.183 133.078 390.265 132.996 388.242L131.671 354.852V354.855Z" fill="#9EBBDB"/>
<path d="M96.5785 534.466C96.5785 534.466 97.8544 486.184 97.8544 481.042C97.8544 475.9 92.4466 441.429 97.3966 425.633L134.973 429.123C134.973 429.123 135.709 445.066 135.709 446.263C135.709 448.132 130.02 497.833 130.744 521.983L116.033 523.376C116.033 523.376 115.763 491.359 118.622 478.884C118.765 471.371 118.183 454.467 118.183 454.467C118.183 454.467 113.222 477.105 112.697 482.378C112.168 487.651 108.891 535.415 108.891 535.415C108.891 535.415 101.592 534.469 96.586 534.469L96.5785 534.466Z" fill="#073669"/>
<path d="M87.2152 390.025C87.2152 390.025 85.4852 383.855 90.1537 374.014C92.8294 368.374 100.425 363.649 109.567 359.205C126.995 350.731 133.799 352.885 136.107 361.115C137.18 364.947 138.16 379.497 137.034 387.54C135.191 400.709 134.425 422.51 135.563 430.748C135.788 432.388 130.853 436.502 120.596 438.746C113.162 440.371 96.2332 439.797 94.5745 432.917L95.5464 392.896L87.219 390.032L87.2152 390.025Z" fill="#C7DAF2"/>
<path d="M125.385 361.716C125.385 364.519 121.816 366.79 117.41 366.79C113.008 366.79 109.436 364.519 109.436 361.716C109.436 358.912 113.004 356.642 117.41 356.642C121.812 356.642 125.385 358.912 125.385 361.716Z" fill="#FCAE6E"/>
<path d="M110.67 348.644H124.845V363.577C124.845 363.754 124.702 363.896 124.526 363.896H111.286C110.948 363.896 110.67 363.622 110.67 363.281V348.644Z" fill="#FCAE6E"/>
<path d="M112.216 348.644C112.216 355.137 116.044 360.909 122.191 362.996C123.494 363.438 124.841 362.47 124.841 361.097V348.644H112.216Z" fill="#F29955"/>
<path d="M130.091 342.474C129.468 351.872 127.693 359.209 122.871 359.209C115.722 359.209 110.667 351.695 110.667 342.275C110.667 332.859 111.079 327.721 118.228 327.721C125.377 327.721 130.703 333.246 130.091 342.474Z" fill="#FCAE6E"/>
<path d="M110.67 355.366C110.67 355.366 110.52 350.671 111.721 344.467C112.415 340.898 112.944 339.641 116.003 338.954C116.907 338.751 123.944 340.962 125.67 340.752C127.892 340.481 129.622 336.436 130.08 339.524C130.08 339.524 131.337 337.397 129.776 332.105C128.485 327.721 109.094 321.525 106.685 338.316C105.461 346.843 109.436 350.881 110.667 355.366H110.67Z" fill="#111B33"/>
<path d="M114.127 346.276C114.127 348.584 114.232 350.881 112.434 350.881C110.633 350.881 108.366 347.98 108.366 345.676C108.366 343.371 109.068 342.099 110.869 342.099C112.671 342.099 114.13 343.968 114.13 346.276H114.127Z" fill="#FCAE6E"/>
<path d="M131.397 429.472C131.337 429.472 131.277 429.472 131.217 429.472C126.849 429.352 126.113 423.944 130.399 423.088C132.178 422.736 133.998 422.54 135.476 421.895L137.754 418.405C138.25 417.647 140.816 415.155 141.56 415.672C142.164 416.089 140.325 418.945 140.07 419.632C140.07 419.632 138.137 422.886 140.554 421.719C142.64 420.709 147.876 412.013 147.59 418.461C147.268 425.689 137.398 429.528 131.401 429.472H131.397Z" fill="#FCAE6E"/>
<path d="M87.0238 385.885C87.0238 385.885 88.8176 415.29 89.4106 418.142C90.0035 420.994 99.4831 435.849 131.119 430.647C131.119 430.647 132.204 424.976 131.671 421.219C125.468 420.844 106.381 420.882 102.106 414.291C100.654 412.051 100.189 398.506 100.189 398.506C101.093 390.967 94.5219 384.665 87.0276 385.889L87.0238 385.885Z" fill="#9EBBDB"/>
<path d="M116.153 522.651C116.153 522.651 116.269 528.401 116.153 529.895C116.037 531.388 129.843 539.99 136.05 541.022C139.465 541.593 141.59 540.302 142.809 538.89C143.886 537.644 143.635 535.73 142.351 534.698C134.587 528.442 129.825 522.002 129.825 522.002L116.153 522.651Z" fill="#111B33"/>
<path d="M97.5316 534.24C97.5316 534.24 96.1318 541.446 96.3945 543.169C96.6572 544.891 97.7606 555.929 107.188 555.471C116.615 555.009 110.408 543.63 109.833 542.137C109.259 540.643 107.994 534.24 107.994 534.24H97.5316Z" fill="#111B33"/>
<path d="M124.747 356.131C124.631 355.523 124.522 354.72 125.385 353.88C125.94 353.339 126.999 353.043 127.344 353.733C127.689 354.424 126.841 355.948 126.365 356.259C125.892 356.571 124.826 356.555 124.743 356.135L124.747 356.131Z" fill="#FCAE6E"/>
<path d="M142.182 419.028L150.881 418.119L163.81 403.599L155.107 404.504L142.182 419.028Z" fill="url(#paint2_linear_3976_69264)"/>
<path d="M142.183 419.028L140.07 416.708L152.994 402.184L155.107 404.504L142.183 419.028Z" fill="#1B2851"/>
<path d="M163.81 403.599L161.697 401.28L152.994 402.184L155.107 404.504L163.81 403.599Z" fill="#1B2851"/>
<path d="M161.1 406.639C159.93 407.953 158.53 408.204 156.109 408.508C153.58 408.827 151.095 408.805 150.686 409.897C150.221 411.135 152.728 411.124 152.728 411.124C152.728 411.124 156.676 411.109 156.481 411.469C156.286 411.829 152.78 412.287 151.572 412.344C149.384 412.445 148.457 412.381 148.356 413.421C148.206 414.978 154.21 413.905 154.105 414.494C154 415.083 149.287 415.597 148.9 415.864C148.514 416.13 148.859 416.663 150.638 416.96C152.36 417.245 156.413 417.117 158.26 415.935C162.279 413.361 164.583 408.801 163.806 406.632L163.029 404.462L161.1 406.632V406.639Z" fill="#FCAE6E"/>
<path d="M115.226 351.451C114.172 347.86 112.288 342.095 115.226 339.213H112.216V348.445C112.216 350.108 113.564 351.451 115.226 351.451Z" fill="#111B33"/>
<path d="M332.262 309.921C332.262 309.921 331.872 306.318 331.568 305.132C331.264 303.95 330.6 299.274 329.361 297.735C328.123 296.196 328.119 299.987 327.774 301.053C327.432 302.118 325.788 302.711 324.542 301.158C323.3 299.604 322.054 295.483 320.929 293.483C319.806 291.486 314.496 298.388 315.164 302.096C315.828 305.804 317.337 308.619 320.11 311.051C322.786 313.4 326.029 313.993 327.061 315.168L332.258 309.917L332.262 309.921Z" fill="#FCAE6E"/>
<path d="M403.029 489.738C403.029 489.738 403.52 491.201 397.201 491.547C390.881 491.892 384.163 491.892 383.3 496.028C382.441 500.163 388.261 505.012 395.155 505.958C401.092 506.772 411.345 506.157 417.132 505.008C418.1 504.817 418.929 504.367 419.061 503.387C419.335 501.353 419.53 497.72 418.235 493.825C416.385 488.248 403.025 489.734 403.025 489.734L403.029 489.738Z" fill="#111B33"/>
<path d="M385.754 494.429C385.754 494.429 386.246 495.892 379.926 496.238C373.607 496.583 366.885 496.583 366.026 500.719C365.167 504.855 370.075 508.127 376.965 509.077C382.906 509.895 394.788 510.454 399.509 510.649C400.496 510.69 401.306 510.007 401.441 509.028C401.715 506.998 402.064 503.365 401.779 499.514C401.351 493.656 385.754 494.429 385.754 494.429Z" fill="#111B33"/>
<path d="M417.012 392.025C417.012 392.025 417.695 442.829 418.152 449.01C418.61 455.188 419.984 492.646 419.984 492.646C419.984 492.646 409.367 497.994 401.13 494.327L396.412 397.744L417.008 392.025H417.012Z" fill="#033F75"/>
<path d="M402.136 395.226V446.109C402.593 460.982 403.434 500.006 403.434 500.006C391.309 501.376 383.6 494.778 383.6 494.778C384.287 488.143 383.6 450.609 383.6 450.609C381.116 431.135 379.63 399.846 379.371 394.089C379.341 393.489 379.33 393.166 379.33 393.166L402.136 395.226Z" fill="#073669"/>
<path d="M424.333 320.275C424.333 320.275 432.113 344.497 430.435 357.31C430.435 357.31 424.183 362.65 417.012 366.005L424.333 320.272V320.275Z" fill="#9EBBDB"/>
<path d="M382.028 297.889C382.05 307.211 388.201 314.751 395.763 314.732C403.325 314.713 409.435 307.14 409.412 297.818C409.386 288.495 403.239 280.955 395.677 280.974C388.111 280.993 382.002 288.566 382.028 297.889Z" fill="#FCAE6E"/>
<path d="M405.547 310.945C405.547 310.945 395.666 310.27 387.912 315.689C387.912 315.689 387.338 317.318 385.788 318.354C384.238 319.39 372.766 323.751 372.766 323.751C372.766 323.751 379.938 372.115 376.046 394.085C376.046 394.085 392.753 407.131 418.839 394.085C418.839 394.085 422.652 334.165 424.333 320.279C424.333 320.279 419.984 314.901 405.543 310.945H405.547Z" fill="#C7DAF2"/>
<path d="M372.77 323.747L353.285 328.228L332.472 307.009C332.472 307.009 325.166 309.264 323.691 315.517L348.515 343.769L379.045 341.104C379.045 341.104 386.347 325.886 372.77 323.751V323.747Z" fill="#9EBBDB"/>
<path d="M390.753 280.216C390.753 280.216 375.81 283.275 379.956 291.242C382.377 295.892 396.683 297.45 396.683 297.45C396.683 297.45 389.106 301.608 394.701 303.541C394.701 303.541 395.591 310.912 405.734 310.27C405.734 310.27 420.997 290.387 402.353 280.97C402.353 280.97 397.125 279.075 390.757 280.212L390.753 280.216Z" fill="#111B33"/>
<path d="M183.133 39.4997C183.891 45.0616 180.836 51.6894 176.314 54.2977C171.815 56.8985 167.559 54.4891 166.778 48.9422C166.05 43.4028 169.079 36.7938 173.582 34.2005C178.101 31.5809 182.383 33.9791 183.133 39.4997ZM175.826 50.7174C178.765 49.021 180.713 44.7914 180.251 41.1698C179.737 37.6044 177.005 36.0845 174.066 37.7395C171.18 39.4434 169.206 43.6843 169.694 47.2646C170.182 50.875 172.941 52.3874 175.83 50.7174" fill="#4EBCC4"/>
<path d="M47.6944 158.938C48.4525 164.5 45.3977 171.128 40.8756 173.736C36.3759 176.337 32.1203 173.928 31.3397 168.381C30.6116 162.842 33.6402 156.233 38.1435 153.639C42.6619 151.02 46.9438 153.418 47.6944 158.938ZM40.3877 170.156C43.3261 168.46 45.2739 164.23 44.8123 160.608C44.2981 157.043 41.5661 155.523 38.6276 157.178C35.7417 158.882 33.7678 163.123 34.2556 166.703C34.7435 170.314 37.5018 171.826 40.3914 170.156" fill="#C9C9C9"/>
<path d="M400.642 35.0149C403.58 33.3186 405.528 29.0889 405.066 25.4673C404.552 21.902 401.82 20.382 398.882 22.0371C395.996 23.7409 394.022 27.9818 394.51 31.5622C394.998 35.1725 397.756 36.685 400.646 35.0149M407.949 23.7972C408.707 29.3592 405.652 35.9869 401.13 38.5953C396.63 41.1961 392.374 38.7867 391.594 33.2397C390.866 27.7003 393.894 21.0913 398.398 18.498C402.916 15.8784 407.198 18.2766 407.949 23.7972Z" stroke="#4EBCC4" stroke-width="4" stroke-miterlimit="10"/>
<path d="M96.0155 109.384C94.8859 110.037 94.1917 110.968 93.7038 111.853C93.2047 112.743 92.8744 113.546 92.4053 114.18C92.0938 114.601 91.7186 114.976 91.1444 115.31C90.2775 115.802 89.7708 115.753 89.2267 115.58C88.6938 115.4 88.1534 115.01 87.3578 114.946C86.8437 114.901 86.2132 115.043 85.4776 115.468C85.1962 115.633 84.9973 116.061 85.0461 116.406C85.0949 116.766 85.3726 116.92 85.654 116.755C86.5322 116.259 87.0276 116.312 87.5717 116.485C88.1046 116.665 88.6488 117.051 89.4406 117.119C89.951 117.153 90.5552 117.036 91.2682 116.623C92.4466 115.944 93.1409 115.01 93.6325 114.12C94.1204 113.238 94.4581 112.428 94.9235 111.801C95.2424 111.377 95.6102 111.005 96.1919 110.668C97.0626 110.176 97.5579 110.232 98.0983 110.405C98.6312 110.585 99.1716 110.972 99.956 111.047C100.466 111.077 101.071 110.964 101.784 110.551C102.958 109.872 103.664 108.934 104.148 108.048C104.647 107.158 104.977 106.355 105.439 105.725C105.758 105.305 106.126 104.929 106.711 104.591C107.57 104.111 108.077 104.156 108.61 104.336C109.154 104.509 109.691 104.899 110.479 104.97C110.989 105.004 111.593 104.888 112.303 104.475C113.481 103.796 114.187 102.858 114.667 101.972C115.166 101.082 115.496 100.283 115.958 99.6525C116.277 99.2322 116.645 98.8569 117.219 98.5229C117.512 98.354 117.707 97.9299 117.658 97.5659C117.613 97.2206 117.335 97.0667 117.042 97.2356C115.92 97.8811 115.222 98.8156 114.742 99.7051C114.243 100.595 113.913 101.398 113.44 102.032C113.132 102.448 112.764 102.82 112.179 103.162C111.312 103.649 110.813 103.597 110.272 103.424C109.74 103.244 109.199 102.854 108.404 102.79C107.889 102.749 107.259 102.888 106.531 103.308C105.401 103.961 104.703 104.892 104.223 105.777C103.724 106.667 103.394 107.47 102.921 108.104C102.613 108.521 102.245 108.896 101.66 109.234C100.793 109.726 100.294 109.673 99.7533 109.497C99.2204 109.316 98.68 108.93 97.8844 108.862C97.3703 108.821 96.7398 108.964 96.0118 109.38L96.0155 109.384Z" fill="url(#paint3_linear_3976_69264)"/>
<path d="M261.619 28.3083C258.996 29.8208 257.386 31.9825 256.264 34.0354C255.108 36.0957 254.343 37.9572 253.25 39.4284C252.53 40.3967 251.663 41.2749 250.323 42.0442C248.308 43.1814 247.137 43.0725 245.88 42.6747C244.642 42.2544 243.392 41.3574 241.553 41.2036C240.363 41.1022 238.896 41.4325 237.192 42.4158C236.535 42.7986 236.081 43.7856 236.19 44.5888C236.303 45.4257 236.945 45.7784 237.601 45.3994C239.635 44.2472 240.787 44.3748 242.045 44.7764C243.279 45.193 244.536 46.0862 246.372 46.2476C247.557 46.3264 248.957 46.0524 250.605 45.1029C253.333 43.5304 254.947 41.3612 256.088 39.3008C257.221 37.2517 258.005 35.3789 259.082 33.9228C259.822 32.9395 260.67 32.0763 262.025 31.2919C264.04 30.1548 265.188 30.2824 266.445 30.6839C267.684 31.0968 268.933 31.9937 270.754 32.1701C271.936 32.2452 273.339 31.975 274.987 31.0255C277.711 29.4455 279.347 27.2725 280.466 25.2234C281.625 23.163 282.387 21.3015 283.461 19.8378C284.204 18.8621 285.052 17.9914 286.406 17.207C288.399 16.0886 289.57 16.1974 290.808 16.6103C292.066 17.0118 293.319 17.9163 295.135 18.0814C296.318 18.1602 297.721 17.8938 299.369 16.9368C302.097 15.3643 303.733 13.1913 304.852 11.1347C306.007 9.07427 306.773 7.2203 307.846 5.75664C308.589 4.78086 309.434 3.91017 310.773 3.14081C311.449 2.75425 311.903 1.76346 311.79 0.926547C311.685 0.123409 311.04 -0.229371 310.364 0.157186C307.764 1.65463 306.15 3.82385 305.032 5.87673C303.876 7.93712 303.11 9.7986 302.014 11.2698C301.298 12.2343 300.449 13.0975 299.091 13.8856C297.076 15.0152 295.927 14.8952 294.67 14.4936C293.435 14.077 292.182 13.1763 290.343 13.0224C289.154 12.9286 287.686 13.2513 286.001 14.2271C283.378 15.7396 281.768 17.9013 280.65 19.9542C279.494 22.0146 278.728 23.876 277.632 25.3472C276.916 26.3117 276.068 27.1787 274.709 27.963C272.694 29.1002 271.545 28.9801 270.288 28.571C269.053 28.1544 267.8 27.2612 265.961 27.0998C264.772 27.006 263.304 27.3325 261.623 28.3046L261.619 28.3083Z" fill="#A5A5A5"/>
<defs>
<linearGradient id="paint0_linear_3976_69264" x1="67.1424" y1="244.259" x2="361.538" y2="244.259" gradientUnits="userSpaceOnUse">
<stop offset="0.0559345" stop-color="#394C91"/>
<stop offset="1" stop-color="#27D3E0"/>
</linearGradient>
<linearGradient id="paint1_linear_3976_69264" x1="336.621" y1="202.572" x2="457.775" y2="202.572" gradientUnits="userSpaceOnUse">
<stop offset="0.0559345" stop-color="#394C91"/>
<stop offset="1" stop-color="#27D3E0"/>
</linearGradient>
<linearGradient id="paint2_linear_3976_69264" x1="142.182" y1="411.311" x2="163.81" y2="411.311" gradientUnits="userSpaceOnUse">
<stop stop-color="#AE53FC"/>
<stop offset="1" stop-color="#3B48ED"/>
</linearGradient>
<linearGradient id="paint3_linear_3976_69264" x1="85.0386" y1="107.151" x2="117.669" y2="107.151" gradientUnits="userSpaceOnUse">
<stop stop-color="#AE53FC"/>
<stop offset="1" stop-color="#3B48ED"/>
</linearGradient>
</defs>
</svg>
