<svg width="62" height="77" viewBox="0 0 62 77" fill="none" xmlns="http://www.w3.org/2000/svg">
<path d="M11.9231 38.5C11.2906 38.5 10.6841 38.7535 10.2369 39.2048C9.7897 39.656 9.53846 40.2681 9.53846 40.9062C9.53846 41.5444 9.7897 42.1565 10.2369 42.6077C10.6841 43.059 11.2906 43.3125 11.9231 43.3125C12.5555 43.3125 13.1621 43.059 13.6093 42.6077C14.0565 42.1565 14.3077 41.5444 14.3077 40.9062C14.3077 40.2681 14.0565 39.656 13.6093 39.2048C13.1621 38.7535 12.5555 38.5 11.9231 38.5ZM9.53846 50.5312C9.53846 49.8931 9.7897 49.281 10.2369 48.8298C10.6841 48.3785 11.2906 48.125 11.9231 48.125C12.5555 48.125 13.1621 48.3785 13.6093 48.8298C14.0565 49.281 14.3077 49.8931 14.3077 50.5312C14.3077 51.1694 14.0565 51.7815 13.6093 52.2327C13.1621 52.684 12.5555 52.9375 11.9231 52.9375C11.2906 52.9375 10.6841 52.684 10.2369 52.2327C9.7897 51.7815 9.53846 51.1694 9.53846 50.5312ZM19.0769 40.9062C19.0769 40.2681 19.3282 39.656 19.7754 39.2048C20.2226 38.7535 20.8291 38.5 21.4615 38.5H40.5385C41.1709 38.5 41.7774 38.7535 42.2246 39.2048C42.6718 39.656 42.9231 40.2681 42.9231 40.9062C42.9231 41.5444 42.6718 42.1565 42.2246 42.6077C41.7774 43.059 41.1709 43.3125 40.5385 43.3125H21.4615C20.8291 43.3125 20.2226 43.059 19.7754 42.6077C19.3282 42.1565 19.0769 41.5444 19.0769 40.9062ZM21.4615 48.125C20.8291 48.125 20.2226 48.3785 19.7754 48.8298C19.3282 49.281 19.0769 49.8931 19.0769 50.5312C19.0769 51.1694 19.3282 51.7815 19.7754 52.2327C20.2226 52.684 20.8291 52.9375 21.4615 52.9375H40.5385C41.1709 52.9375 41.7774 52.684 42.2246 52.2327C42.6718 51.7815 42.9231 51.1694 42.9231 50.5312C42.9231 49.8931 42.6718 49.281 42.2246 48.8298C41.7774 48.3785 41.1709 48.125 40.5385 48.125H21.4615ZM9.53846 0C7.0087 0 4.58256 1.01406 2.79375 2.8191C1.00494 4.62413 0 7.07229 0 9.625V57.75C0 60.3027 1.00494 62.7509 2.79375 64.5559C4.58256 66.3609 7.0087 67.375 9.53846 67.375H42.9231C45.4528 67.375 47.879 66.3609 49.6678 64.5559C51.4566 62.7509 52.4615 60.3027 52.4615 57.75V26.0549C52.4599 24.141 51.7051 22.3061 50.3631 20.9536L31.6963 2.11269C30.3552 0.760287 28.5369 0.000408491 26.6409 0H9.53846ZM4.76923 9.625C4.76923 8.34865 5.2717 7.12457 6.16611 6.22205C7.06051 5.31953 8.27358 4.8125 9.53846 4.8125H23.8462V21.6562C23.8462 23.5708 24.5999 25.4069 25.9415 26.7607C27.2831 28.1145 29.1027 28.875 31 28.875H47.6923V57.75C47.6923 59.0264 47.1898 60.2504 46.2954 61.153C45.401 62.0555 44.188 62.5625 42.9231 62.5625H9.53846C8.27358 62.5625 7.06051 62.0555 6.16611 61.153C5.2717 60.2504 4.76923 59.0264 4.76923 57.75V9.625ZM28.6154 21.6562V5.80869L46.7051 24.0625H31C30.3676 24.0625 29.761 23.809 29.3138 23.3577C28.8666 22.9065 28.6154 22.2944 28.6154 21.6562ZM57.2308 28.875C58.4956 28.875 59.7087 29.382 60.6031 30.2845C61.4975 31.1871 62 32.4111 62 33.6875V58.0388C62 60.5288 61.514 62.9944 60.5696 65.2949C59.6253 67.5954 58.2412 69.6857 56.4963 71.4464C54.7514 73.2071 52.6799 74.6038 50.4001 75.5567C48.1203 76.5095 45.6769 77 43.2092 77H14.3077C13.0428 77 11.8297 76.493 10.9353 75.5905C10.0409 74.6879 9.53846 73.4639 9.53846 72.1875H42.9231C46.7177 72.1875 50.3569 70.6664 53.0401 67.9589C55.7234 65.2513 57.2308 61.5791 57.2308 57.75V28.875Z" fill="white"/>
</svg>
