<svg id="SvgjsSvg1001" width="288" height="288" xmlns="http://www.w3.org/2000/svg" version="1.1" xmlns:xlink="http://www.w3.org/1999/xlink" xmlns:svgjs="http://svgjs.com/svgjs"><defs id="SvgjsDefs1002"></defs><g id="SvgjsG1008"><svg xmlns="http://www.w3.org/2000/svg" data-name="Layer 1" viewBox="0 0 64 64" width="288" height="288"><path d="M57.938,45.289a4.1,4.1,0,0,0-3.494-3.245A4.154,4.154,0,0,0,50.307,39.2L29.292,42.054C28.347,40.8,26.7,38.608,26,37.66v-2.5l2.748,2.748a3.739,3.739,0,1,0,5.4-5.166L28.815,27.4A11.536,11.536,0,0,0,20.6,24c-.373,0-2.134.01-4.206,0-9.788-.024-9.788-.022-10.13.345A1,1,0,0,0,6,25.026L6,43.031c.057.993.054.993,6.843.97,1.4-.006,2.957-.012,3.678,0,1.182,1.443,5.623,6.873,5.623,6.873a9.2,9.2,0,0,0,8.807,3.219L54.094,50A4.026,4.026,0,0,0,57.938,45.289Zm-5.876-3.442a1.98,1.98,0,0,1,.271.347L31.7,45h-.2l-.835-1.114,19.841-2.7A2.321,2.321,0,0,1,52.062,41.847Zm3.47,5.439a2.144,2.144,0,0,1-1.706.73L30.6,52.121A7.2,7.2,0,0,1,23.7,49.6c-3.716-4.544-5.209-6.369-5.911-7.1l.062-.04a1.047,1.047,0,0,0-.837-.452v.038c-1.3-.113-7.159-.009-9.009-.043L8,26c2.439-.046,10.241.064,12.607-.036V26a9.55,9.55,0,0,1,6.8,2.815l5.309,5.308a1.742,1.742,0,1,1-2.555,2.361l-4.4-4.4A1.026,1.026,0,0,0,24,32.807v5.18a1,1,0,0,0,.189.586c.392.542,1.7,2.285,2.709,3.624.988,1.355,2.394,3.163,3.3,4.4.351.532,1.158.393,1.7.391l21.823-2.967A2.014,2.014,0,0,1,55.532,47.286Z" fill="#56077d" class="color000 svgShape"></path><path d="M44.285,37a9.01,9.01,0,0,0,9-9c-.7-12.4-17.907-11.457-17.949,0A8.806,8.806,0,0,0,44.285,37Zm0-16a7.008,7.008,0,0,1,7,7c-.5,9.666-14.019,8.875-13.949,0A6.78,6.78,0,0,1,44.285,21Z" fill="#56077d" class="color000 svgShape"></path><path d="M43.475,30.124c-.57-.307-.77-1.648-1.632-.931-.675,1.028.741,2.068,1.756,2.14-.079.528-.171,1.659.6,1.667s.676-1.133.6-1.657a1.986,1.986,0,0,0,1.877-2.865c-.655-1.04-2.4-.965-3.329-1.571-.563-.5.143-1.138.761-1.071.71-.073,1.031.558,1.426.95a.685.685,0,0,0,.913-1.015,2.112,2.112,0,0,0-1.614-.878c.017-.527.07-1.374-.633-1.393-.686.019-.656.832-.633,1.354-1.334.064-2.383,1.619-1.536,2.738a3.767,3.767,0,0,0,2.077,1.038c.73.236,1.27.25,1.311,1C45.358,30.446,43.981,30.475,43.475,30.124Z" fill="#56077d" class="color000 svgShape"></path></svg></g></svg>