<svg xmlns="http://www.w3.org/2000/svg" width="78" height="81" viewBox="0 0 78 81" fill="none">
<path d="M20.133 1.04062C19.6852 1.14012 18.7067 1.50497 17.9605 1.85325C15.4397 3.0639 13.4164 5.7008 12.9354 8.38744C12.8193 9.03423 12.753 13.7442 12.753 21.9368C12.753 33.9272 12.7364 34.5076 12.4545 34.5906C11.6253 34.8559 11.0448 35.8841 7.79431 42.9159C5.98663 46.8297 4.39454 50.4119 4.24528 50.8597C3.4824 53.1318 3.46582 53.5961 3.46582 67.3776V80.4626H4.79256H6.10272L6.15247 66.8967L6.20222 53.3474L6.63341 52.1035C6.86559 51.4236 8.32501 48.1233 9.86734 44.7733L12.6701 38.6703L12.753 49.0852C12.8193 57.112 12.8857 59.666 13.0681 60.3127C13.2837 61.142 13.2837 61.142 12.6701 62.1868C12.2389 62.9331 12.1062 63.2979 12.2389 63.4306C12.5706 63.8286 14.2456 64.6081 14.3948 64.4588C14.4778 64.3593 16.2689 61.2746 18.3916 57.5763C20.5144 53.8781 22.4216 50.6773 22.604 50.4783C23.1182 49.8978 23.7649 49.6159 24.561 49.6159C26.1199 49.6159 27.2476 50.81 27.1315 52.3523C27.0818 53.082 26.6838 53.8615 23.8976 58.6709C22.1397 61.7058 20.7134 64.3427 20.7134 64.5417C20.7134 64.7407 21.4266 66.0841 22.2889 67.5435C24.7766 71.673 24.5942 71.0262 24.6605 76.101L24.7102 80.4626H26.037H27.3471V76.4326C27.3471 71.3081 27.0984 70.1804 25.3902 67.5601L25.158 67.1952H29.188H33.2346V68.4722C33.2511 69.5004 33.3341 69.9482 33.6657 70.6779C34.0969 71.5735 39.3707 80.7777 39.5863 80.9933C39.6527 81.0431 40.1999 80.8109 40.8136 80.446C41.8915 79.8158 41.9247 79.7661 41.7091 79.4178C41.5764 79.2188 40.2331 76.9136 38.7239 74.2933C36.9826 71.2584 35.9378 69.2848 35.8715 68.8702C35.6724 67.5766 36.7172 66.2167 38.1103 65.9348C38.7405 65.8021 39.9346 66.2167 40.399 66.7474C40.5814 66.9464 41.3774 68.2566 42.1901 69.6497C42.9861 71.0428 43.7656 72.2534 43.9314 72.3363C44.4123 72.6017 45.026 72.5353 45.4406 72.1871L45.8386 71.872L45.9215 58.4387C46.0044 45.1879 46.0044 44.9889 46.3527 44.5411C46.9995 43.6622 47.5302 43.3968 48.575 43.3968C49.6198 43.3968 50.1505 43.6622 50.7973 44.5411C51.1455 44.9889 51.1455 45.2045 51.2285 56.4486L51.3114 67.8917L51.7094 68.2068C52.2069 68.6049 52.9035 68.6049 53.401 68.2068C53.799 67.8917 53.799 67.8254 53.882 64.4091C53.9649 60.5947 53.998 60.4952 55.1092 59.666C55.756 59.185 57.3149 59.185 57.9617 59.666C59.0728 60.4952 59.106 60.5947 59.1889 64.4091C59.2718 67.8254 59.2718 67.8917 59.6699 68.2068C60.1674 68.6049 60.8639 68.6049 61.3614 68.2068C61.7429 67.9083 61.7595 67.7922 61.8424 65.0724C61.9253 61.9878 61.9916 61.7887 63.0696 60.9927C63.7164 60.5118 65.2753 60.5118 65.9221 60.9927C67.0001 61.7887 67.0664 61.9878 67.1494 65.0724C67.2323 67.7922 67.2489 67.9083 67.6303 68.2068C68.1278 68.6049 68.8244 68.6049 69.3219 68.2068C69.6867 67.9083 69.7199 67.7425 69.8028 65.7358C69.8692 63.8949 69.9355 63.4969 70.234 63.1155C70.8808 62.2365 71.4115 61.9712 72.4563 61.9712C73.5011 61.9712 74.0318 62.2365 74.6786 63.1155C75.0103 63.5633 75.0269 63.7789 75.0766 72.0212L75.1264 80.4626H76.4531H77.7799L77.7301 71.789L77.6804 63.1321L77.1165 62.0873C76.1878 60.3957 74.7947 59.4669 72.8709 59.2845C71.71 59.185 70.433 59.5001 69.5707 60.0971L69.1063 60.4454L68.5756 59.865C66.8508 57.908 64.2471 57.3773 62.0746 58.5548L61.1293 59.0689L60.4493 58.3226C60.0679 57.9246 59.3382 57.3939 58.8075 57.1617L57.8622 56.7305L57.829 32.4844L57.7792 8.23818L57.3481 7.14362C56.7344 5.5847 56.1872 4.68916 55.1424 3.62776C54.1141 2.58295 53.1688 1.98592 51.5767 1.37231L50.4822 0.941116L35.7222 0.907944C26.916 0.907944 20.6305 0.957695 20.133 1.04062ZM51.2616 4.12529C52.804 4.855 53.7659 5.78371 54.5121 7.29288L55.1258 8.55328L55.1755 32.6502L55.2087 56.7471L54.6117 56.9959C54.28 57.1286 53.9815 57.2447 53.9483 57.2447C53.9317 57.2447 53.882 54.3922 53.8488 50.8929L53.799 44.5577L53.2352 43.5129C52.605 42.3686 51.9084 41.6886 50.7309 41.1248C49.6364 40.5941 47.4804 40.6106 46.3361 41.1579C45.2913 41.672 44.2797 42.6671 43.7656 43.7285L43.3509 44.5577L43.3012 54.5414L43.2514 64.5417H42.5383C42.1237 64.5417 41.7423 64.4422 41.6262 64.3095C41.3443 63.9779 39.9843 63.4306 39.1054 63.2979C38.1601 63.1487 36.4685 63.5633 35.6061 64.1271L34.9759 64.5417H29.3207C24.4947 64.5417 23.682 64.5086 23.7484 64.3095C23.7981 64.1769 25.1083 61.8717 26.6672 59.185C28.2427 56.4486 29.5694 53.961 29.6855 53.5298C30.2826 51.1582 29.1217 48.6374 26.9325 47.4931C25.7385 46.8795 23.964 46.7966 22.6538 47.2941C21.0949 47.8746 20.4149 48.7203 17.8112 53.2644L15.4894 57.311L15.4397 52.5181C15.4231 49.8647 15.4231 38.9025 15.4397 28.1393L15.4894 8.56987L16.0201 7.45872C16.302 6.84511 16.8493 6.01589 17.2142 5.61787C17.9439 4.82183 19.453 3.94286 20.4813 3.6941C20.8627 3.61118 27.2145 3.54484 35.6393 3.56142L50.1505 3.5946L51.2616 4.12529Z" fill="#ffffff"/>
<path d="M24.6938 7.49162V8.81836H26.0206H27.3473V7.49162V6.16488H26.0206H24.6938V7.49162Z" fill="#ffffff"/>
<path d="M30.0015 7.49162V8.81836H35.3084H40.6154V7.49162V6.16488H35.3084H30.0015V7.49162Z" fill="#ffffff"/>
<path d="M32.9038 17.0116C29.2884 17.7247 26.1872 19.7977 24.1971 22.8658C22.7211 25.1213 22.124 27.1611 22.124 30.0468C22.124 32.9325 22.7211 34.9723 24.1805 37.2112C28.2104 43.3639 36.4031 45.1385 42.4895 41.1582C49.571 36.5478 50.6158 26.647 44.662 20.6933C42.9538 18.9685 40.9803 17.8574 38.4595 17.1774C37.1659 16.8126 34.3135 16.7462 32.9038 17.0116ZM37.5308 19.6816C43.6172 20.9752 47.3818 27.5426 45.3751 33.3471C44.7781 35.0387 44.0318 36.2327 42.7714 37.5097C38.559 41.7055 32.0414 41.7055 27.829 37.4931C23.6664 33.3636 23.6664 26.7465 27.829 22.5673C30.4162 19.9967 33.9818 18.9353 37.5308 19.6816Z" fill="#ffffff"/>
<path d="M33.9817 22.7493C33.9817 23.2469 33.9153 23.4127 33.7163 23.4127C32.4393 23.4127 30.5819 24.8721 30.2005 26.1657C29.7361 27.7246 30.0678 28.9684 31.2453 30.1293C32.2901 31.1907 32.9037 31.3731 35.2918 31.3731C37.0332 31.3731 37.1659 31.3897 37.5473 31.7877C37.8126 32.0365 37.9619 32.3848 37.9619 32.6999C37.9619 33.015 37.8126 33.3632 37.5473 33.612C37.1659 34.01 37.0332 34.0266 35.3084 34.0266C33.5837 34.0266 33.451 34.01 33.0696 33.612C32.8374 33.3964 32.6549 33.0979 32.6549 32.9486C32.6549 32.7496 32.4062 32.6999 31.3282 32.6999C30.2171 32.6999 30.0015 32.7496 30.0015 32.9652C30.0015 34.6236 32.0579 36.6801 33.7163 36.6801C33.9153 36.6801 33.9817 36.8459 33.9817 37.3435V38.0068H35.3084H36.6352V37.3435C36.6352 36.8128 36.7015 36.6801 36.9337 36.6801C37.7297 36.6801 38.8077 36.1162 39.5042 35.3534C41.0466 33.6452 40.9968 31.5721 39.3716 29.9635C38.3268 28.9021 37.7131 28.7197 35.325 28.7197C33.5837 28.7197 33.451 28.7031 33.0696 28.305C32.5223 27.7744 32.5223 27.0115 33.0696 26.4808C33.451 26.0828 33.5837 26.0662 35.3084 26.0662C37.0332 26.0662 37.1659 26.0828 37.5473 26.4808C37.7795 26.6964 37.9619 26.9949 37.9619 27.1442C37.9619 27.3432 38.2107 27.3929 39.2886 27.3929C40.3998 27.3929 40.6154 27.3432 40.6154 27.1276C40.6154 25.8672 39.2886 24.1092 38.0117 23.678C37.5805 23.5288 37.0995 23.4127 36.9337 23.4127C36.7015 23.4127 36.6352 23.28 36.6352 22.7493V22.086H35.3084H33.9817V22.7493Z" fill="#ffffff"/>
<path d="M31.3278 54.1438C30.5152 54.4092 29.1221 55.8354 28.8733 56.6812C28.409 58.2401 28.7407 59.484 29.9181 60.6449C31.0624 61.7892 31.4771 61.8887 35.3412 61.8887C39.2219 61.8887 39.7526 61.756 40.8306 60.5619C42.3232 58.9035 42.3232 56.9134 40.8306 55.255C39.736 54.0443 39.2385 53.9282 35.2417 53.9448C33.3179 53.9614 31.6595 54.0443 31.3278 54.1438ZM38.8736 56.9963C39.139 57.2451 39.2882 57.5933 39.2882 57.9085C39.2882 58.2236 39.139 58.5718 38.8736 58.8206C38.4756 59.2352 38.4424 59.2352 35.308 59.2352C32.1736 59.2352 32.1404 59.2352 31.7424 58.8206C31.4771 58.5718 31.3278 58.2236 31.3278 57.9085C31.3278 57.5933 31.4771 57.2451 31.7424 56.9963C32.1404 56.5817 32.1736 56.5817 35.308 56.5817C38.4424 56.5817 38.4756 56.5817 38.8736 56.9963Z" fill="#ffffff"/>
<path d="M2.10641 17.5586C0.945514 18.7195 -0.016373 19.7477 0.000211294 19.8472C0.0167955 19.9302 0.431402 20.3779 0.912345 20.8257L1.82448 21.6549L2.63711 20.8423L3.46632 20.0297V27.6916V35.3535H4.79306H6.1198V27.6916V20.0297L6.94901 20.8423L7.76164 21.6549L8.67378 20.8257C9.15472 20.3779 9.56933 19.9302 9.58591 19.8472C9.60249 19.7477 8.64061 18.7195 7.47971 17.5586C5.60569 15.7012 5.274 15.4524 4.79306 15.4524C4.31212 15.4524 3.98043 15.7012 2.10641 17.5586Z" fill="#ffffff"/>
<path d="M63.1362 17.5586C61.9753 18.7195 61.0134 19.7477 61.03 19.8472C61.0466 19.9302 61.4612 20.3779 61.9421 20.8257L62.8543 21.6549L63.6669 20.8423L64.4961 20.0297V27.6916V35.3535H65.8228H67.1496V27.6916V20.0297L67.9788 20.8423L68.7914 21.6549L69.7036 20.8257C70.1845 20.3779 70.5991 19.9302 70.6157 19.8472C70.6323 19.7477 69.6704 18.7195 68.5095 17.5586C66.6355 15.7012 66.3038 15.4524 65.8228 15.4524C65.3419 15.4524 65.0102 15.7012 63.1362 17.5586Z" fill="#ffffff"/>
<path d="M3.46582 39.3334V40.6602H4.79256H6.1193V39.3334V38.0067H4.79256H3.46582V39.3334Z" fill="#ffffff"/>
<path d="M64.4961 39.3334V40.6602H65.8228H67.1496V39.3334V38.0067H65.8228H64.4961V39.3334Z" fill="#ffffff"/>
<path d="M64.4961 44.641V45.9678H65.8228H67.1496V44.641V43.3143H65.8228H64.4961V44.641Z" fill="#ffffff"/>
</svg>