<svg width="13" height="13" viewBox="0 0 13 13" fill="none" xmlns="http://www.w3.org/2000/svg">
<path d="M6.5 0.6875C5.3504 0.6875 4.22661 1.0284 3.27075 1.66708C2.31489 2.30577 1.56989 3.21356 1.12995 4.27565C0.690018 5.33775 0.574912 6.50645 0.799188 7.63396C1.02346 8.76148 1.57705 9.79717 2.38994 10.6101C3.20284 11.423 4.23853 11.9765 5.36604 12.2008C6.49355 12.4251 7.66225 12.31 8.72435 11.8701C9.78644 11.4301 10.6942 10.6851 11.3329 9.72925C11.9716 8.77339 12.3125 7.6496 12.3125 6.5C12.3125 4.95843 11.7001 3.48 10.6101 2.38994C9.52001 1.29989 8.04157 0.6875 6.5 0.6875Z" fill="#333333"/>
</svg>
