<svg width="15" height="19" viewBox="0 0 15 19" fill="none" xmlns="http://www.w3.org/2000/svg">
<path d="M13.5303 2.03571H11.5008V1.35714C11.5008 0.997206 11.3582 0.652012 11.1045 0.397498C10.8507 0.142984 10.5066 0 10.1477 0H4.73561C4.37676 0 4.03261 0.142984 3.77887 0.397498C3.52513 0.652012 3.38258 0.997206 3.38258 1.35714V2.03571H1.35303C0.994184 2.03571 0.650036 2.1787 0.396293 2.43321C0.142551 2.68773 0 3.03292 0 3.39286V17.6429C0 18.0028 0.142551 18.348 0.396293 18.6025C0.650036 18.857 0.994184 19 1.35303 19H13.5303C13.8891 19 14.2333 18.857 14.487 18.6025C14.7408 18.348 14.8833 18.0028 14.8833 17.6429V3.39286C14.8833 3.03292 14.7408 2.68773 14.487 2.43321C14.2333 2.1787 13.8891 2.03571 13.5303 2.03571ZM4.73561 1.35714H10.1477V4.07143H4.73561V1.35714ZM13.5303 17.6429H1.35303V3.39286H3.38258V5.42857H11.5008V3.39286H13.5303V17.6429Z" fill="#850558"/>
<path d="M9.22628 7.44167H6.09377L3.88086 9.65458V12.7871L6.09377 15H9.22628L11.4392 12.7871V9.65458L9.22628 7.44167ZM10.5994 12.4386L8.87776 14.1602H6.44229L4.72067 12.4386V10.0031L6.44229 8.28148H8.87776L10.5994 10.0031V12.4386V12.4386Z" fill="#850558"/>
<path d="M7.33594 9.16928H8.19975V11.7607H7.33594V9.16928ZM7.33594 12.6245H8.19975V13.4883H7.33594V12.6245Z" fill="#850558"/>
</svg>
