<svg width="62" height="80" viewBox="0 0 62 80" fill="none" xmlns="http://www.w3.org/2000/svg">
<path d="M56.3636 8.48024H47.9091V5.6535C47.9091 4.1541 47.3153 2.71611 46.2582 1.65587C45.2012 0.595634 43.7676 0 42.2727 0H19.7273C18.2324 0 16.7988 0.595634 15.7418 1.65587C14.6847 2.71611 14.0909 4.1541 14.0909 5.6535V8.48024H5.63636C4.14151 8.48024 2.70788 9.07588 1.65085 10.1361C0.593829 11.1963 0 12.6343 0 14.1337V73.4954C0 74.9948 0.593829 76.4328 1.65085 77.4931C2.70788 78.5533 4.14151 79.1489 5.63636 79.1489H56.3636C57.8585 79.1489 59.2921 78.5533 60.3491 77.4931C61.4062 76.4328 62 74.9948 62 73.4954V14.1337C62 12.6343 61.4062 11.1963 60.3491 10.1361C59.2921 9.07588 57.8585 8.48024 56.3636 8.48024V8.48024ZM19.7273 5.6535H42.2727V16.9605H19.7273V5.6535ZM56.3636 73.4954H5.63636V14.1337H14.0909V22.614H47.9091V14.1337H56.3636V73.4954Z" fill="white"/>
<path d="M37.46 31H22.54L12 41.54V56.46L22.54 67H37.46L48 56.46V41.54L37.46 31ZM44 54.8L35.8 63H24.2L16 54.8V43.2L24.2 35H35.8L44 43.2V54.8Z" fill="white"/>
<path d="M28.457 39.2285H32.5713V51.5714H28.457V39.2285ZM28.457 55.6857H32.5713V59.7999H28.457V55.6857Z" fill="white"/>
</svg>
