<svg width="22" height="16" viewBox="0 0 22 16" fill="none" xmlns="http://www.w3.org/2000/svg">

<path d="M20.2565 6.962C20.7305 7.582 20.7305 8.419 20.2565 9.038C18.7635 10.987 15.1815 15 10.9995 15C6.81752 15 3.23552 10.987 1.74252 9.038C1.51191 8.74113 1.38672 8.37592 1.38672 8C1.38672 7.62408 1.51191 7.25887 1.74252 6.962C3.23552 5.013 6.81752 1 10.9995 1C15.1815 1 18.7635 5.013 20.2565 6.962V6.962Z" stroke="black" stroke-width="2" stroke-linecap="round" stroke-linejoin="round"/>

<path d="M10.9995 11C12.6564 11 13.9995 9.65685 13.9995 8C13.9995 6.34315 12.6564 5 10.9995 5C9.34266 5 7.99951 6.34315 7.99951 8C7.99951 9.65685 9.34266 11 10.9995 11Z" stroke="black" stroke-width="2" stroke-linecap="round" stroke-linejoin="round"/>

</svg>