<svg width="77" height="77" viewBox="0 0 77 77" fill="none" xmlns="http://www.w3.org/2000/svg">
<path d="M69.3 12.5125C69.3 9.19398 67.9817 6.01137 65.6352 3.66483C63.2886 1.31828 60.106 0 56.7875 0H12.5125C9.19398 0 6.01137 1.31828 3.66483 3.66483C1.31828 6.01137 0 9.19398 0 12.5125V56.7875C0 60.106 1.31828 63.2886 3.66483 65.6352C6.01137 67.9817 9.19398 69.3 12.5125 69.3H34.7347C33.5808 67.5001 32.6634 65.5592 32.005 63.525H12.5125C10.7256 63.525 9.01189 62.8152 7.74837 61.5516C6.48484 60.2881 5.775 58.5744 5.775 56.7875V21.175H63.525V32.005C65.5592 32.6634 67.5001 33.5808 69.3 34.7347V12.5125ZM12.5125 5.775H56.7875C60.5066 5.775 63.525 8.7934 63.525 12.5125V15.4H5.775V12.5125C5.775 8.7934 8.7934 5.775 12.5125 5.775ZM77 55.825C77 50.209 74.7691 44.8231 70.798 40.852C66.8269 36.8809 61.441 34.65 55.825 34.65C50.209 34.65 44.8231 36.8809 40.852 40.852C36.8809 44.8231 34.65 50.209 34.65 55.825C34.65 61.441 36.8809 66.8269 40.852 70.798C44.8231 74.7691 50.209 77 55.825 77C61.441 77 66.8269 74.7691 70.798 70.798C74.7691 66.8269 77 61.441 77 55.825ZM55.825 55.825H63.525C64.0355 55.825 64.5252 56.0278 64.8862 56.3888C65.2472 56.7498 65.45 57.2395 65.45 57.75C65.45 58.2605 65.2472 58.7502 64.8862 59.1112C64.5252 59.4722 64.0355 59.675 63.525 59.675H53.9C53.3954 59.6751 52.911 59.477 52.5509 59.1235C52.1909 58.7699 51.9841 58.2892 51.975 57.7847V46.1961C51.975 45.6856 52.1778 45.196 52.5388 44.835C52.8998 44.474 53.3895 44.2711 53.9 44.2711C54.4105 44.2711 54.9002 44.474 55.2612 44.835C55.6222 45.196 55.825 45.6856 55.825 46.1961V55.825Z" fill="white"/>
</svg>
