<svg width="63" height="80" viewBox="0 0 63 80" fill="none" xmlns="http://www.w3.org/2000/svg">
<path d="M10.4286 77.8571C8.19318 77.8571 6.04933 76.9691 4.46867 75.3885C2.88801 73.8078 2 71.664 2 69.4286V2H39.9286L61 23.0714V69.4286C61 71.664 60.112 73.8078 58.5313 75.3885C56.9507 76.9691 54.8068 77.8571 52.5714 77.8571H10.4286Z" stroke="black" stroke-width="3" stroke-linecap="round" stroke-linejoin="round"/>
<path d="M35.7144 2V27.2857H61.0001" stroke="black" stroke-width="3" stroke-linejoin="round"/>
<path d="M12 44H52M12 61H52" stroke="black" stroke-width="3" stroke-linecap="round" stroke-linejoin="round"/>
<path d="M11.25 32H28.75M29.0875 21.6625C28.7968 21.3725 28.4517 21.1426 28.0721 20.9861C27.6924 20.8295 27.2857 20.7493 26.875 20.75H13.125C12.2962 20.75 11.5013 21.0792 10.9153 21.6653C10.3292 22.2513 10 23.0462 10 23.875V25.75C10 26.0815 10.1317 26.3995 10.3661 26.6339C10.6005 26.8683 10.9185 27 11.25 27H28.75C29.0815 27 29.3995 26.8683 29.6339 26.6339C29.8683 26.3995 30 26.0815 30 25.75V23.875C30 23.05 29.675 22.25 29.0875 21.6625Z" stroke="black" stroke-width="2.8" stroke-linecap="round" stroke-linejoin="round"/>
<path d="M22.5 20.75V15.125C22.5 13.25 23.75 13.25 23.75 10.75C23.75 9.75544 23.3549 8.80161 22.6517 8.09835C21.9484 7.39509 20.9946 7 20 7C17.925 7 16.25 8.25 16.25 10.75C16.25 13.25 17.5 13.25 17.5 15.125V20.75" stroke="black" stroke-width="2.8" stroke-linecap="round" stroke-linejoin="round"/>
</svg>
