<?xml version="1.0" standalone="no"?>
<!DOCTYPE svg PUBLIC "-//W3C//DTD SVG 20010904//EN"
 "http://www.w3.org/TR/2001/REC-SVG-20010904/DTD/svg10.dtd">
<svg version="1.0" xmlns="http://www.w3.org/2000/svg"
 width="200.000000pt" height="200.000000pt" viewBox="0 0 200.000000 200.000000"
 preserveAspectRatio="xMidYMid meet">

<g transform="translate(0.000000,200.000000) scale(0.100000,-0.100000)"
fill="#000000" stroke="none">
<path d="M1480 1835 c-8 -10 -11 -46 -8 -115 1 -55 1 -100 -1 -100 -2 0 -19
11 -37 25 -55 42 -192 103 -271 121 -56 12 -106 15 -201 12 -109 -4 -139 -9
-215 -35 -124 -44 -189 -85 -292 -188 -143 -142 -212 -296 -222 -496 -10 -180
18 -273 77 -254 28 9 32 35 19 111 -16 92 -5 217 28 316 126 382 564 565 928
389 44 -21 91 -48 105 -59 l25 -21 -60 -1 c-117 -1 -166 -11 -177 -36 -9 -19
-8 -28 8 -45 18 -20 24 -20 184 -14 91 4 174 12 184 17 18 10 19 20 13 185 -4
111 -10 180 -18 189 -15 18 -53 18 -69 -1z"/>
<path d="M752 1293 c-19 -37 -4 -43 96 -43 112 0 153 -15 189 -69 13 -19 23
-38 23 -42 0 -5 -69 -9 -154 -9 -126 0 -155 -3 -160 -15 -3 -8 2 -21 10 -30
12 -12 44 -15 160 -15 96 0 144 -4 144 -11 0 -21 -57 -67 -96 -78 -21 -6 -75
-11 -120 -11 -74 0 -104 -9 -104 -31 0 -6 290 -269 382 -347 14 -12 21 -12 33
-2 8 7 15 18 15 25 0 7 -70 75 -156 152 -145 128 -155 138 -128 140 16 2 53 8
83 14 63 13 124 62 141 115 11 33 13 34 65 34 57 0 89 18 79 45 -5 11 -23 15
-68 15 l-61 0 -24 53 c-14 28 -27 55 -29 60 -2 4 37 7 86 7 94 0 109 7 90 43
-8 15 -30 17 -248 17 -218 0 -240 -2 -248 -17z"/>
<path d="M1670 1196 c-10 -13 -10 -31 0 -97 45 -289 -111 -583 -375 -708 -92
-44 -173 -61 -290 -61 -110 0 -185 15 -278 57 -52 24 -161 93 -146 93 48 0
217 24 226 32 18 14 16 53 -2 68 -12 10 -43 11 -153 1 -189 -16 -211 -20 -222
-41 -15 -28 17 -340 37 -362 20 -22 37 -23 58 -1 15 14 16 30 10 115 -4 54 -4
98 0 98 3 0 21 -11 38 -24 52 -39 150 -84 234 -108 101 -29 285 -31 383 -5
292 78 507 304 566 597 19 98 16 278 -7 326 -16 33 -58 44 -79 20z"/>
</g>
</svg>
