<?xml version="1.0" standalone="no"?>
<!DOCTYPE svg PUBLIC "-//W3C//DTD SVG 20010904//EN"
 "http://www.w3.org/TR/2001/REC-SVG-20010904/DTD/svg10.dtd">
<svg version="1.0" xmlns="http://www.w3.org/2000/svg"
 width="22.000000pt" height="18.000000pt" viewBox="0 0 22.000000 18.000000"
 preserveAspectRatio="xMidYMid meet">

<g transform="translate(0.000000,18.000000) scale(0.100000,-0.100000)"
fill="#ed0974" stroke="none">
<path d="M53 150 c-42 -25 -57 -54 -43 -81 15 -27 69 -59 100 -59 31 0 85 32
100 59 14 27 -1 56 -43 81 -40 25 -74 25 -114 0z m124 -22 c31 -29 26 -57 -16
-85 -43 -29 -59 -29 -102 0 -40 27 -47 51 -22 79 39 43 98 46 140 6z"/>
<path d="M80 115 c-26 -32 13 -81 48 -59 22 14 27 41 12 59 -16 19 -44 19 -60
0z m55 -25 c0 -18 -6 -26 -23 -28 -24 -4 -38 18 -28 44 3 9 15 14 28 12 17 -2
23 -10 23 -28z"/>
</g>
</svg>
